
        <svg xmlns="http://www.w3.org/2000/svg" xmlns:xlink="http://www.w3.org/1999/xlink" version="1.1" width="3170.4416683938407" height="3006.697556510095" viewBox="0 0 3170.4416683938407 3006.697556510095">
			
			<g transform="scale(8.522083419692033) translate(10, 10)">
				<defs id="SvgjsDefs5797"/><g id="SvgjsG5798" featureKey="rootContainer" transform="matrix(3.371901945662803,0,0,3.371901945662803,0,0.0006961982452735871)" fill="#000"><path xmlns="http://www.w3.org/2000/svg" d="M54.7 98.7h-5c-9 0-17-.3-23.6-4.1s-11.6-11.7-15.8-19l-2-3.5C4.2 65.1 0 57.9 0 49.4s4.2-15.8 8.3-22.8l2-3.5c4.2-7.3 8.5-14.8 15.8-19S40.7 0 49.7 0h5c9 0 17 .3 23.6 4.1s11.6 11.7 15.8 19l2 3.5c4.1 7 8.3 14.2 8.3 22.8s-4.2 15.8-8.3 22.8l-2 3.5c-4.2 7.3-8.5 14.8-15.8 19s-14.6 4-23.6 4zm-2.5-1.2h2.5c8.8 0 16.7-.3 23-4S89 82.2 93.1 75l2-3.5c4-6.9 8.2-14 8.2-22.2S99.1 34 95.1 27.1l-2-3.5c-4.1-7-8.4-14.4-15.3-18.4s-14.2-4-23-4h-5c-8.8 0-16.7.3-23 4S15.5 16.6 11.4 23.7l-2 3.5c-4 6.9-8.2 14-8.2 22.2s4.1 15.3 8.1 22.1l2 3.5c4.1 7.1 8.4 14.5 15.3 18.6s14.2 4 23 4z"/></g><g id="SvgjsG5799" featureKey="symbolFeature-0" transform="matrix(0.9009121020197909,0,0,0.9009121020197909,131.13870305744723,50.95394211287215)" fill="#000"><path xmlns="http://www.w3.org/2000/svg" d="M96.824,49.614c0,0-14.807-26.345-47.113-26.345c-0.603,0-1.196,0.012-1.786,0.03l-2.82-13.258l-4.326,0.92  l2.691,12.648C15.567,26.657,3.176,49.421,3.176,49.421s2.574,5.073,8.056,10.842L8.975,49.66c-0.047-0.082-0.072-0.126-0.072-0.126  s0.899-1.515,2.759-3.73l3.957,18.601c1.625,1.385,3.418,2.746,5.381,4.035l-5.648-26.548c1.121-1.062,2.396-2.167,3.821-3.266  l6.976,32.789c1.574,0.787,3.236,1.516,4.982,2.162l-8.02-37.688c1.309-0.817,2.71-1.605,4.209-2.346l8.853,41.602  c1.519,0.387,3.093,0.707,4.725,0.957l-3.37-15.838c1.522,1.848,3.447,3.346,5.639,4.373l2.548,11.973  c1.056,0.062,2.13,0.1,3.229,0.1c0.44,0,0.876-0.008,1.312-0.02l-2.271-10.666c0.662,0.082,1.334,0.129,2.019,0.129  c0.844,0,1.673-0.064,2.48-0.189l5.106,23.996l4.324-0.92l-2.822-13.268C84.242,70.971,96.824,49.614,96.824,49.614z M34.429,45.703  l-2.972-13.969c1.396-0.533,2.866-1.017,4.401-1.44l1.941,9.125C36.245,41.21,35.077,43.349,34.429,45.703z M41.633,36.18  l-1.462-6.869c1.41-0.257,2.87-0.462,4.383-0.605l1.214,5.705C44.296,34.809,42.907,35.407,41.633,36.18z M50.171,33.85l-1.146-5.38  c0.24-0.003,0.479-0.008,0.722-0.008c1.056,0,2.088,0.032,3.103,0.089c10.366,1.643,18.293,10.619,18.293,21.448  c0,9-5.478,16.714-13.278,20.007l-1.132-5.326c5.559-2.551,9.42-8.164,9.42-14.682C66.152,41.134,59.014,33.941,50.171,33.85z   M69.188,67.406c4.094-4.641,6.58-10.73,6.58-17.408c0-6.988-2.726-13.335-7.164-18.05c15.316,6.024,22.494,17.74,22.494,17.74  S83.793,61.074,69.188,67.406z"/></g><g id="SvgjsG5800" featureKey="nameFeature-0" transform="matrix(2.6578072752866113,0,0,2.6578072752866113,94.72425031853038,136.58471729640115)" fill="#000"><path d="M5.28 37.4 c0 -0.84 0.12 -1.68 1.24 -1.68 c1.68 0 1.72 -0.84 1.72 -2.04 c0 -0.68 -0.16 -1.28 -0.16 -1.96 c0 -0.28 0.12 -0.6 0.12 -0.96 c0 -0.28 -0.12 -0.56 -0.12 -0.96 c0 -0.56 0.12 -0.68 0.12 -0.92 c0 -0.56 -0.16 -1.28 -0.16 -1.76 l0.08 -0.16 l0 -1.84 l-0.2 -0.28 l0.12 -0.08 c0.16 0.04 0.36 0.12 0.36 0.08 c0 -0.48 -0.48 -0.48 -0.64 -0.84 c-0.52 -1.36 -0.96 -2.76 -1.6 -4 c-0.24 -0.48 -0.48 -2 -1 -2.32 c0 -1.24 -1.56 -2.32 -1.56 -3.64 c-0.4 -1.32 -0.6 -1.6 -1.84 -2.08 c-0.28 -0.12 0.28 -0.68 -0.92 -0.68 c0 -0.28 0.44 -0.96 0.44 -0.96 l-0.4 -0.56 l0 -0.08 c0 -0.28 -0.4 -0.36 -0.4 -0.64 c0.12 -0.36 0.36 -1.04 0.4 -1.04 s0.08 0.08 0.2 0.08 c0.4 0 0.52 -0.4 0.84 -0.52 c0 0.24 0.2 0.28 0.36 0.28 l0.28 0 c0 -0.16 -0.28 -0.36 -0.48 -0.36 c0.24 -0.36 0.68 -0.4 1.04 -0.4 c1.2 0 1.12 0.2 1.56 0.2 c0.28 -0.24 0.48 -0.24 0.76 -0.24 c0.68 0 1.32 0.2 2.08 0.2 c0.12 0 0.28 -0.2 0.4 -0.2 c0 0 -0.04 0 -0.04 0.04 c0 0.08 0.24 0.16 0.32 0.16 l0.08 -0.2 c0.12 0 0.28 0.08 0.4 0.08 l0.28 -0.08 c1 0.04 2 0.08 2 1.28 c0 0.28 -0.2 0.28 -0.2 0.68 s0.08 0.72 0.08 1.16 l0 0.24 c0 0.2 0.08 1.72 -0.48 1.72 c-0.32 0 -0.48 -0.12 -0.68 -0.12 c-0.4 0 -0.48 0 -0.84 0.2 c-0.04 0.84 0.36 0.88 0.56 1.4 c0.04 0.76 0.36 1.04 0.52 1.64 s1.28 3.56 1.64 3.76 l0.16 0 c0 -0.28 0.68 -0.64 0.68 -1.36 c0.4 -1.84 1.4 -3.36 1.96 -5.12 c-0.2 -0.44 -0.28 -0.56 -0.56 -0.56 c-0.16 0 -0.28 0.04 -0.44 0.04 c-0.4 0 -1.2 -0.68 -1.2 -1.68 c0.04 -0.4 0.24 -0.76 0.24 -1.24 l-0.2 -0.28 c0.56 -1.12 -0.36 -1.56 1.8 -1.8 c0.08 0 0.28 0.16 0.4 0.28 c0.36 -0.08 0.56 -0.08 0.84 -0.08 c0.4 0 0.56 0.2 0.96 0.2 c0.56 0 1.04 -0.2 1.72 -0.2 c0.44 0 0.72 0.12 1.12 0.12 c0.32 0 0.64 -0.08 0.88 -0.08 c0.08 0 0.16 0.12 0.36 0.12 l0.12 -0.2 c0.48 0.68 0.76 0.28 0.92 1.24 c0 0.08 0.2 0.76 0.2 0.84 c0.08 0.04 -0.08 0.2 -0.08 0.76 l0.04 0.32 c0.12 1.88 -0.96 1.8 -2.36 1.84 c-0.6 0.4 -0.48 1.44 -0.96 1.8 c0.04 0.08 0.04 0.16 0.04 0.24 c0 0.44 -0.16 0.96 -0.48 1.12 c0 1.12 -0.6 1.72 -1.04 2.76 c-0.08 1.04 -0.32 1.2 -0.72 1.88 c-0.32 0.56 -0.36 1.36 -0.56 1.92 c-0.08 0.4 -0.48 0.76 -0.56 1.24 c0 0.72 -0.52 1.04 -0.72 1.56 c0.04 0.32 0 0.6 -0.2 0.88 c0 0.08 0.12 0.48 0.12 0.48 c0 -0.04 -0.04 0.4 -0.12 0.56 c-0.04 0.24 0.12 0.36 0.12 0.68 c0 0.56 0.04 0.48 -0.12 0.64 c0 0.2 0.2 0.4 0.2 0.6 c-0.04 0.16 -0.04 0.28 -0.12 0.36 c0 0.12 0.2 0.76 0.2 0.88 c-0.12 0.2 -0.32 0.64 -0.32 1.04 c0 0.36 0.32 0.76 0.32 1.24 c0 1.16 -0.24 2.28 -0.24 3.72 c0.08 0.16 0.36 0.08 0.56 0.12 c0.6 0 1.12 -0.12 1.64 -0.08 l0.64 0.64 l-0.04 2.2 c0 0.08 -0.08 0.28 -0.08 0.4 l0.08 0.16 c0.08 0.88 -0.24 1.32 -0.96 1.72 l-1.2 0 c-0.12 -0.08 -1.36 -0.24 -1.56 -0.24 c-0.64 0 -1.24 0.2 -1.88 0.2 l-0.28 -0.2 c-0.2 0 -0.6 0.2 -0.76 0.2 c-0.24 0 -1.08 -0.12 -1.44 -0.24 c0 0.4 -0.88 0.4 -1.32 0.4 c-1.28 -0.48 -2.08 -2.2 -2.08 -3.64 z M11.8 40.24 c-0.04 0 -0.04 0.04 -0.04 0.08 s0 0.08 0.04 0.08 c0.08 0 0.08 -0.04 0.08 -0.08 s0 -0.08 -0.08 -0.08 z M11.72 40.12 c-0.04 0 -0.04 0.04 -0.04 0.12 c0 0.04 0 0.08 0.04 0.08 s0.08 -0.04 0.08 -0.08 c0 -0.08 -0.04 -0.12 -0.08 -0.12 z M12.6 40.12 l0.08 0.12 c0.08 0 0.08 -0.12 0.08 -0.2 c-0.08 0 -0.16 0 -0.16 0.08 z M12.4 39.36 c-0.04 0 -0.08 0.04 -0.08 0.04 c0 0.04 0.04 0.08 0.08 0.08 s0.08 -0.04 0.08 -0.08 c0 0 -0.04 -0.04 -0.08 -0.04 z M12.28 39.08 l0 0.08 l0.12 0 z M12.12 38.68 c0.28 0.12 0.48 0.12 0.64 0.12 c0 -0.2 -0.36 -0.28 -0.56 -0.28 z M12.68 38.04 c-0.2 0 -0.2 0.08 -0.2 0.28 c0.12 0 0.28 -0.08 0.28 -0.28 l-0.08 0 z M13.64 38.12 c-0.04 0 -0.08 0.04 -0.08 0.08 c0 0.08 0.04 0.12 0.08 0.12 s0.08 -0.04 0.08 -0.12 c0 -0.04 -0.04 -0.08 -0.08 -0.08 z M12.64 37.36 c-0.2 0 -0.12 0.08 -0.2 0.2 c-0.04 0.04 0.16 0 0.2 -0.2 z M10.72 37.16 c-0.04 0 -0.04 0.04 -0.04 0.08 c0 0.08 0 0.12 0.04 0.12 s0.08 -0.04 0.08 -0.12 c0 -0.04 -0.04 -0.08 -0.08 -0.08 z M11.08 37.08 l0 0.2 l0.12 0 c0 -0.12 0 -0.2 -0.12 -0.2 z M13.96 37.08 c-0.04 0 -0.08 0 -0.08 0.04 c0 0 0.04 0.04 0.08 0.04 s0.08 -0.04 0.08 -0.04 c0 -0.04 -0.04 -0.04 -0.08 -0.04 z M12.52 36.52 l0 0.56 c0.12 0 0.28 0 0.28 -0.08 c0 -0.12 -0.04 -0.4 -0.08 -0.48 l-0.2 0 z M10.32 36.68 c-0.04 0 -0.04 0.04 -0.04 0.08 c0 0.08 0 0.12 0.04 0.12 c0.08 0 0.08 -0.04 0.08 -0.12 c0 -0.04 0 -0.08 -0.08 -0.08 z M11.08 36.6 c0 0.08 0 0.2 0.12 0.2 c0 -0.12 0.04 -0.28 -0.12 -0.28 l0 0.08 z M14.72 36.56 c0 0.2 0.16 0.2 0.2 0.2 c0.16 0 0.28 -0.16 0.28 -0.32 c-0.32 0 -0.44 -0.04 -0.48 0.12 z M13.28 36.4 l0 0.12 l0.2 0 l0 -0.12 l-0.2 0 z M9.76 35.519999999999996 l0 0.08 l0.08 -0.08 l-0.08 0 z M8.24 35.24 c-0.04 0 -0.04 0.04 -0.04 0.08 c0 0.08 0 0.12 0.04 0.12 s0.08 -0.04 0.08 -0.12 c0 -0.04 -0.04 -0.08 -0.08 -0.08 z M9.48 34.36 c-0.04 0 -0.04 0.04 -0.04 0.08 c0 0.08 0 0.12 0.04 0.12 s0.08 -0.04 0.08 -0.12 c0 -0.04 -0.04 -0.08 -0.08 -0.08 z M9.76 34.08 c-0.04 0 -0.04 0.04 -0.04 0.04 c0 0.04 0 0.08 0.04 0.08 s0.08 -0.04 0.08 -0.08 c0 0 -0.04 -0.04 -0.08 -0.04 z M11.48 33.76 l0.08 0.08 l0 -0.08 l-0.08 0 z M11.4 33.64 c0 -0.04 -0.04 -0.08 -0.04 -0.08 c-0.04 0 -0.08 0.04 -0.08 0.08 s0.04 0.08 0.08 0.08 c0 0 0.04 -0.04 0.04 -0.08 z M8.48 32 l0.08 0.08 l0 -0.08 l-0.08 0 z M12.68 32.04 l0 0.08 l0.28 0 l0 -0.04 z M12.08 29.560000000000002 c-0.04 0 -0.04 0.04 -0.04 0.08 c0 0.08 0 0.12 0.04 0.12 c0.08 0 0.08 -0.04 0.08 -0.12 c0 -0.04 0 -0.08 -0.08 -0.08 z M8.68 29.119999999999997 l0 0.2 l0.08 0 c0 -0.08 0 -0.2 -0.08 -0.2 z M11.08 28.240000000000002 c-0.04 0 -0.04 0 -0.04 0.04 c0 0 0 0.04 0.04 0.04 s0.08 -0.04 0.08 -0.04 c0 -0.04 -0.04 -0.04 -0.08 -0.04 z M10.52 25.36 c0 0.12 0.2 0.12 0.28 0.12 s0.28 0 0.36 -0.12 c-0.04 -0.08 -0.08 -0.2 -0.08 -0.28 c0 0 0.2 0.08 0.28 0.08 c0.12 0 0.12 -0.16 0.12 -0.28 c-0.08 -0.16 -0.24 -0.2 -0.24 -0.32 c0 -0.08 0.04 -0.12 0.04 -0.16 s-0.04 -0.08 -0.2 -0.16 c-0.08 0 -0.36 0.92 -0.56 1.12 z M12.72 25.08 c0 0.08 0.12 0.2 0.36 0.2 c-0.08 -0.2 -0.2 -0.2 -0.36 -0.2 z M11.28 24.8 c0.04 0 0.08 0.04 0.08 0.08 c0 0.08 -0.04 0.12 -0.08 0.12 s-0.08 -0.04 -0.08 -0.12 c0 -0.04 0.04 -0.08 0.08 -0.08 z M13.08 24.68 l0 0.12 c0.08 0 0.2 0 0.2 -0.12 l-0.2 0 z M11.84 24.52 c0 0.16 0.08 0.16 0.2 0.16 l0 -0.28 c-0.12 0 -0.2 0 -0.2 0.12 z M12.4 24.6 c-0.04 0 -0.04 0 -0.04 0.04 c0 0 0 0.04 0.04 0.04 c0.08 0 0.08 -0.04 0.08 -0.04 c0 -0.04 0 -0.04 -0.08 -0.04 z M11.68 23.84 l-0.04 0.56 c0.24 0 0.24 -0.36 0.24 -0.44 c0 -0.04 -0.04 -0.08 -0.2 -0.12 z M10.8 24.240000000000002 c-0.04 0 -0.04 0.04 -0.04 0.08 s0 0.08 0.04 0.08 s0.08 -0.04 0.08 -0.08 s-0.04 -0.08 -0.08 -0.08 z M11 24.04 c-0.04 0 -0.08 0.04 -0.08 0.08 c0 0.08 0.04 0.12 0.08 0.12 s0.08 -0.04 0.08 -0.12 c0 -0.04 -0.04 -0.08 -0.08 -0.08 z M10.36 23.92 l0.04 0.12 c0.12 0 0.16 -0.12 0.16 -0.2 c-0.12 0 -0.2 0 -0.2 0.08 z M7.88 23.8 l0.08 0.08 l0 -0.08 l-0.08 0 z M13.32 23.56 l0 0.2 c0.08 0 0.28 -0.12 0.28 0.12 z M10.84 23.36 c0 0.12 0.08 0.28 0.2 0.28 c0.16 0 0.28 -0.16 0.28 -0.36 c0 -0.12 -0.12 -0.12 -0.2 -0.12 s-0.28 0 -0.28 0.2 z M14.28 23.56 c-0.04 0 -0.08 0.04 -0.08 0.08 c0 0.08 0.04 0.12 0.08 0.12 s0.08 -0.04 0.08 -0.12 c0 -0.04 -0.04 -0.08 -0.08 -0.08 z M12.92 23 c-0.16 0 -0.16 0.16 -0.16 0.28 l0.16 0 l0 -0.28 z M12.16 22.8 l0 0.08 l0.2 0 l0 -0.08 l-0.2 0 z M10.64 22.68 l0.12 0.12 c-0.04 -0.04 0.08 0.04 0.16 -0.12 l-0.28 0 z M11.8 22.32 l0 0.08 l0.08 0 l0 -0.08 l-0.08 0 z M10.08 21.64 c-0.04 0 -0.08 0.04 -0.08 0.08 c0 0.08 0.04 0.12 0.08 0.12 s0.08 -0.04 0.08 -0.12 c0 -0.04 -0.04 -0.08 -0.08 -0.08 z M9.2 21.52 c-0.04 0 -0.04 0.04 -0.04 0.08 c0 0.08 0 0.12 0.04 0.12 c0.08 0 0.08 -0.04 0.08 -0.12 c0 -0.04 0 -0.08 -0.08 -0.08 z M7.4 21.44 c-0.04 0 -0.04 0.04 -0.04 0.08 s0 0.08 0.04 0.08 c0.08 0 0.08 -0.04 0.08 -0.08 s0 -0.08 -0.08 -0.08 z M10.28 21.16 c-0.04 0.08 0.04 0.2 0.08 0.32 l0 -0.32 l-0.08 0 z M11.4 21.48 c0 -0.08 0 -0.08 -0.04 -0.08 c0 0 -0.04 0 -0.04 0.08 c0 0.04 0.04 0.04 0.04 0.04 c0.04 0 0.04 0 0.04 -0.04 z M12.44 20.6 c0 0.12 0.24 0.08 0.32 0.08 c0 -0.12 -0.24 -0.08 -0.32 -0.08 z M13.2 20.4 c0 0.12 0.12 0.2 0.2 0.2 c0 -0.08 -0.08 -0.2 -0.2 -0.2 z M13.96 20.52 c-0.04 0 -0.04 0.04 -0.04 0.08 s0 0.08 0.04 0.08 c0.08 0 0.08 -0.04 0.08 -0.08 s0 -0.08 -0.08 -0.08 z M13.68 20.4 l0 0.12 l0.2 0 l0 -0.12 l-0.2 0 z M6.92 20.2 c-0.08 0 -0.28 0 -0.28 0.16 c0.12 0 0.28 0 0.28 -0.16 z M9.32 20.2 l0 0.08 l0.08 0 z M14.08 20.12 c-0.04 0 -0.08 0.04 -0.08 0.08 c0 0.08 0.04 0.12 0.08 0.12 s0.08 -0.04 0.08 -0.12 c0 -0.04 -0.04 -0.08 -0.08 -0.08 z M9.2 20 c-0.04 0 -0.04 0.04 -0.04 0.08 c0 0.08 0 0.12 0.04 0.12 c0.08 0 0.08 -0.04 0.08 -0.12 c0 -0.04 0 -0.08 -0.08 -0.08 z M15.32 20.08 l0 0.08 l0.2 0 l0 -0.08 l-0.2 0 z M13.2 19.56 l0 0.2 l0.12 -0.2 l-0.12 0 z M9.52 19.52 c-0.04 0 -0.08 0.04 -0.08 0.08 c0 0.08 0.04 0.12 0.08 0.12 s0.08 -0.04 0.08 -0.12 c0 -0.04 -0.04 -0.08 -0.08 -0.08 z M9.16 19.12 c0 0.2 -0.04 0.32 0.16 0.32 l0.04 -0.48 c-0.2 0 -0.2 0.08 -0.2 0.16 z M10 18.32 l0 0.2 l0.48 0 c0 -0.32 -0.44 -0.16 -0.48 -0.2 z M16.12 18.08 c-0.04 0 -0.08 0.04 -0.08 0.08 c0 0.08 0.04 0.12 0.08 0.12 s0.08 -0.04 0.08 -0.12 c0 -0.04 -0.04 -0.08 -0.08 -0.08 z M9.24 17.8 c-0.04 0 -0.04 0 -0.04 0.04 c0 0 0 0.04 0.04 0.04 c0.08 0 0.08 -0.04 0.08 -0.04 c0 -0.04 0 -0.04 -0.08 -0.04 z M15.36 17.04 c0 0.16 0 0.28 -0.12 0.48 l0.4 0 c0 -0.2 -0.08 -0.48 -0.28 -0.48 z M8.48 17.24 l0.12 0.08 l0.08 -0.08 l-0.08 -0.12 z M13.08 16.88 l0 0.2 c0.08 0 0.16 0 0.16 -0.08 c-0.08 -0.2 -0.2 -0.12 -0.16 -0.12 z M13.64 16.88 l0 0.12 c0.08 0 0.2 0 0.2 -0.12 l-0.2 0 z M15.36 16.08 c-0.2 -0.04 -0.08 0.52 -0.12 0.56 c0.12 0 0.2 -0.08 0.2 -0.2 c0 -0.08 -0.08 -0.28 -0.08 -0.36 z M14 16.12 l0 0.12 l0.2 0 l-0.08 -0.12 l-0.12 0 z M13.56 15.559999999999999 l0 0.08 l0.08 -0.08 l-0.08 0 z M13.16 15.48 c-0.04 0 -0.04 0.04 -0.04 0.08 s0 0.08 0.04 0.08 s0.08 -0.04 0.08 -0.08 s-0.04 -0.08 -0.08 -0.08 z M16 15.52 c-0.04 0 -0.04 0.04 -0.04 0.08 s0 0.08 0.04 0.08 c0.08 0 0.08 -0.04 0.08 -0.08 s0 -0.08 -0.08 -0.08 z M15.64 15.52 c0 -0.08 0 -0.08 -0.04 -0.08 c0 0 -0.04 0 -0.04 0.08 c0 0.04 0.04 0.04 0.04 0.04 c0.04 0 0.04 0 0.04 -0.04 z M7.36 14.96 l-0.12 0.08 l0.12 0 l0 -0.08 z M15.08 15.04 c-0.04 0 -0.08 0 -0.08 0.04 c0 0 0.04 0.04 0.08 0.04 s0.08 -0.04 0.08 -0.04 c0 -0.04 -0.04 -0.04 -0.08 -0.04 z M14.24 14.68 c0 -0.04 0 -0.08 -0.04 -0.08 c0 0 -0.04 0.04 -0.04 0.08 s0.04 0.08 0.04 0.08 c0.04 0 0.04 -0.04 0.04 -0.08 z M16.84 14.559999999999999 c-0.04 0 -0.08 0.04 -0.08 0.08 s0.04 0.08 0.08 0.08 s0.08 -0.04 0.08 -0.08 s-0.04 -0.08 -0.08 -0.08 z M17 14.440000000000001 c0 0.2 0.12 0.2 0.2 0.2 c0 0 0.04 -0.08 0.04 -0.2 c0 -0.08 -0.04 -0.16 -0.12 -0.16 c-0.12 0 -0.12 0.08 -0.12 0.16 z M14.92 14.440000000000001 l0 0.12 l0.08 0 l0 -0.12 l-0.08 0 z M15.88 13.8 c0.08 0.08 0 0.64 0.16 0.64 l0 -0.28 c0 0 0 -0.36 -0.08 -0.36 l-0.08 0 z M4.04 14.16 c-0.04 0 -0.04 0.04 -0.04 0.08 s0 0.08 0.04 0.08 c0.08 0 0.08 -0.04 0.08 -0.08 s0 -0.08 -0.08 -0.08 z M5.96 13.120000000000001 l0 0.12 l0.08 0 l0 -0.12 l-0.08 0 z M17.12 13.04 c-0.12 0 -0.28 0 -0.28 0.08 l0.28 0.12 l0 -0.2 z M16.72 12.64 c-0.04 0 -0.04 0.04 -0.04 0.08 c0 0.08 0 0.12 0.04 0.12 c0.08 0 0.08 -0.04 0.08 -0.12 c0 -0.04 0 -0.08 -0.08 -0.08 z M3.76 12.04 l0 0.12 l0.12 0 l0 -0.12 l-0.12 0 z M7.6 12 l0 0.08 l0.08 0.08 z M17.48 11.879999999999999 l0 0.08 l0.12 0.12 z M10.36 11.760000000000002 l0 0.08 l0.08 0.12 z M7.4 10.96 c-0.04 0 -0.08 0.04 -0.08 0.08 s0.04 0.08 0.08 0.08 s0.08 -0.04 0.08 -0.08 s-0.04 -0.08 -0.08 -0.08 z M16.16 10.84 c0 0.08 0.08 0.08 0.2 0.08 c0 -0.08 0 -0.2 -0.12 -0.2 z M9.12 10.36 l0 0.12 l0.08 0 l0 -0.12 l-0.08 0 z M16.2 10.16 c-0.08 0 -0.12 0.04 -0.12 0.12 c0 0.04 0.04 0.08 0.08 0.08 s0.08 -0.08 0.08 -0.12 s0 -0.08 -0.04 -0.08 z M0.68 9.8 c0.04 0 0.08 0.04 0.08 0.04 c0 0.04 -0.04 0.08 -0.08 0.08 s-0.08 -0.04 -0.08 -0.08 c0 0 0.04 -0.04 0.08 -0.04 z M5.92 10 c0 -0.08 -0.04 -0.08 -0.04 -0.08 c-0.04 0 -0.08 0 -0.08 0.08 c0 0.04 0.04 0.04 0.08 0.04 c0 0 0.04 0 0.04 -0.04 z M17.04 10.079999999999998 c0 -0.08 -0.04 -0.08 -0.08 -0.08 s-0.08 0 -0.08 0.08 c0 0.04 0.04 0.04 0.08 0.04 s0.08 0 0.08 -0.04 z M5.8 9.719999999999999 l0 0.08 l0.12 -0.08 l-0.12 0 z M0.68 9.52 c0.04 0 0.08 0.04 0.08 0.08 c0 0.08 -0.04 0.12 -0.08 0.12 s-0.08 -0.04 -0.08 -0.12 c0 -0.04 0.04 -0.08 0.08 -0.08 z M4.76 9.559999999999999 c0 -0.04 0 -0.08 -0.04 -0.08 c0 0 -0.04 0.04 -0.04 0.08 s0.04 0.08 0.04 0.08 c0.04 0 0.04 -0.04 0.04 -0.08 z M16.4 9.600000000000001 c-0.04 0 -0.08 0 -0.08 0.04 c0 0 0.04 0.04 0.08 0.04 s0.08 -0.04 0.08 -0.04 c0 -0.04 -0.04 -0.04 -0.08 -0.04 z M5.44 9.32 c0 0.12 0.08 0.12 0.2 0.12 c0 -0.12 0 -0.2 -0.12 -0.2 z M4.88 9.280000000000001 c0 -0.04 -0.04 -0.08 -0.08 -0.08 c-0.08 0 -0.12 0.04 -0.12 0.08 s0.04 0.08 0.12 0.08 c0.04 0 0.08 -0.04 0.08 -0.08 z M7.72 8.96 c-0.08 0.08 -0.2 0.28 -0.2 0.36 l0.24 0 c0.12 0 0.24 -0.04 0.24 -0.2 c-0.08 -0.08 -0.2 -0.16 -0.28 -0.16 z M15.04 9.120000000000001 c-0.04 0 -0.04 0 -0.04 0.04 c0 0 0 0.04 0.04 0.04 c0.08 0 0.08 -0.04 0.08 -0.04 c0 -0.04 0 -0.04 -0.08 -0.04 z M9.44 8.760000000000002 c-0.2 0 -0.2 0.2 -0.2 0.36 c0.08 0 0.2 -0.28 0.2 -0.36 z M5.72 8.760000000000002 l0 0.2 l0.2 0 c0 -0.16 0 -0.24 -0.2 -0.2 z M6.88 8.559999999999999 c-0.12 0 -0.2 0 -0.2 0.08 l0.2 0 l0 -0.08 z M18.08 8.36 c0.12 0.2 0.2 0.36 0.4 0.36 c0 -0.16 -0.2 -0.28 -0.28 -0.36 l-0.12 0 z M2 7.960000000000001 c-0.04 0 -0.04 0 -0.04 0.04 c0 0 0 0.04 0.04 0.04 s0.08 -0.04 0.08 -0.04 c0 -0.04 -0.04 -0.04 -0.08 -0.04 z M16.96 7.880000000000003 l-0.08 0.08 l0.16 0 z M7.04 7.520000000000003 c0 0.2 0.2 0.28 0.28 0.28 c0 -0.04 0.04 -0.16 0.04 -0.24 s-0.04 -0.12 -0.12 -0.12 c-0.12 0 -0.12 0.04 -0.2 0.08 z M15.32 7.799999999999997 l0 0.08 l0.2 0 l0 -0.08 l-0.2 0 z M17.04 7.399999999999999 l0 0.12 l0.2 0 l0 -0.12 l-0.2 0 z M29.760000000000005 40.16 l-0.08 0.2 c0 -0.08 -0.2 -0.28 -0.28 -0.28 c-0.2 0 -0.48 0.28 -0.68 0.28 c-0.92 0 -2.96 -1.84 -3.56 -3.56 c-0.16 -0.52 -0.68 -0.96 -0.76 -1.44 c-0.2 -0.56 -0.28 -1.24 -0.44 -1.8 c0 -0.08 -0.28 -0.48 -0.28 -0.56 c0 -0.28 0.16 -0.48 0.16 -0.68 c0 -0.08 0 -0.2 -0.08 -0.28 l0 -1.12 l-0.16 -0.2 l0 -1.16 l-0.08 -0.08 c0.08 -0.48 0.08 -1.04 0.2 -1.52 l0.16 0.08 c0.12 0 0.16 -0.08 0.16 -0.16 s-0.04 -0.12 -0.04 -0.12 l-0.2 0 c0 -0.92 -0.24 -1.68 -0.24 -2.56 c0 0 -0.08 -1.2 0.36 -1.2 l0.08 0 c0.08 0 0.12 0 0.12 -0.16 l-0.08 -0.08 l-0.4 0.2 c0 -0.4 0.04 -0.76 -0.08 -0.96 c-0.08 0.08 0.08 -0.28 0.2 -0.48 c0.04 -0.64 -0.36 -1.6 -0.28 -1.92 l0.2 -0.16 c0.04 -0.44 -0.08 -0.84 -0.08 -1.24 c0 -0.28 0 -0.88 0.28 -1.08 c-0.4 -0.16 -0.48 -0.64 -0.48 -0.92 c0 -0.68 0.32 -1.24 0.32 -1.84 c0 -0.44 -0.28 -0.84 -0.28 -1.52 c0 -0.16 0.08 -0.76 0.28 -1.04 l0.04 -1.52 c-0.08 0 -0.08 -0.08 -0.08 -0.2 c-0.16 0.08 0.36 -0.88 0.36 -0.96 l-0.16 -0.28 c0.68 -0.16 0.36 -0.08 0.76 -0.48 c0 0.12 0.08 0.2 0.16 0.2 c0.28 0 0.92 -1.04 1.16 -1.12 l0.08 0 c0.4 -2 3.08 -1.44 4.16 -1.96 l-0.2 -0.12 c0.28 -0.08 0.36 -0.08 0.48 -0.36 c0.2 0.16 0.36 0.36 0.64 0.36 l-0.28 0 c0.2 0.16 0.48 0.2 0.76 0.2 l0.4 0 l0.08 0.08 c0.16 0 0.16 -0.04 0.28 -0.08 c1.72 0.04 3.12 0.8 4.08 2.32 c0 0.28 0.56 0.76 0.76 1.28 c0 1.12 0.56 1.84 0.56 2.88 c0 1.36 0.48 2.68 0.48 4.16 c0 0.2 -0.16 0.2 -0.16 0.48 c0 0.4 0.16 0.68 0.16 1.16 c0 0.2 -0.08 0.28 -0.08 0.48 c0 0.28 0.2 0.56 0.2 0.76 c0 0.04 -0.08 0.32 -0.2 0.56 l0.04 0.28 l-0.08 0.12 c0 0.16 0.16 0.96 0.28 1.04 l-0.28 0.96 l0.28 1.68 c-0.2 0.08 -0.24 0.4 -0.24 0.6 c0 0.56 0.12 1.04 0.12 1.72 c-0.08 0.08 -0.28 0.16 -0.2 0.28 l0.08 0 c-0.04 0.2 0.04 0.4 0.12 0.64 c0 0.12 -0.2 0.4 -0.2 0.48 c0 0.4 0 0.44 0.08 0.68 l-0.16 0.08 c0 0.2 0.04 0.12 0.08 0.2 l0 0.32 c0 0.36 0.04 0.6 0.04 1 c0 0.2 -0.08 0.4 -0.08 0.68 c0 0.08 0.08 0.2 0.08 0.28 c0 0.56 -0.2 0.8 -0.2 1.04 l0 0.28 c0 0.24 -0.28 0.64 -0.28 1.04 l0 0.28 c0 0.44 -0.32 0.96 -0.6 1.36 c-0.24 2.04 -2.04 3.56 -4.12 4.44 c-0.4 0.2 -0.88 0.24 -1.24 0.44 l0.08 0 c-0.28 -0.28 -1.88 0.08 -2 -0.4 z M29.640000000000004 38.36 c-0.04 0 -0.08 0.04 -0.08 0.08 c0 0.08 0.04 0.12 0.08 0.12 s0.08 -0.04 0.08 -0.12 c0 -0.04 -0.04 -0.08 -0.08 -0.08 z M32.84 38.04 l0 0.16 l0.12 0 c0 -0.08 0 -0.16 -0.12 -0.16 z M32.760000000000005 37.84 c-0.04 0 -0.04 0.04 -0.04 0.08 c0 0.08 0 0.12 0.04 0.12 s0.08 -0.04 0.08 -0.12 c0 -0.04 -0.04 -0.08 -0.08 -0.08 z M33.800000000000004 36.68 c0.08 0.08 0.08 0.12 0.2 0.12 l-0.08 -0.12 l-0.12 0 z M28.800000000000004 33.32 c0 1.56 1.28 2.08 2.64 2 c1.6 -0.84 1.32 -1.36 1.64 -2.8 c0.04 -0.36 -0.08 -0.6 -0.08 -0.76 c0 -0.12 0.08 -0.2 0.08 -0.32 c0 -0.92 -0.16 -1.88 -0.16 -2.84 c0 -0.56 0.2 -1.16 0.2 -1.72 c0 -0.2 -0.08 -0.28 -0.08 -0.56 c-0.04 -0.16 0.08 -0.84 0.08 -0.88 c0 -0.36 -0.16 -0.68 -0.16 -1.12 c0 -0.28 0.12 -0.48 0.12 -0.76 c0 -0.08 -0.12 -1 -0.12 -1.44 c0 0.04 -0.04 -0.12 0.12 -0.2 c0 0.04 -0.04 -0.4 -0.12 -0.56 c-0.04 -0.24 0.12 -0.44 0.16 -0.76 c0 -0.4 -0.2 -0.68 -0.2 -1.24 c0.04 -0.16 0.08 -0.4 0.08 -0.48 s-0.08 -0.2 -0.08 -0.28 c-0.04 0.04 0.04 -0.24 0.08 -0.48 c0 -0.12 -0.08 -0.44 -0.08 -0.56 l0.04 -2.68 l-0.08 -0.2 l0.08 -0.28 c0 -1.24 0.12 -3.28 -2.24 -3.28 c-0.48 0 -0.68 0.16 -0.8 0.16 l-0.08 0 c-0.92 0 -0.56 1.68 -1.08 2.12 c0 0.4 0.12 0.72 0.12 1.16 c0 0.28 -0.12 0.56 -0.12 0.84 c0 0.2 0.2 0.4 0.2 0.6 c0 0.4 -0.24 0.92 -0.24 1.24 c0 0.36 0.12 0.56 0.12 0.92 c0 0.4 -0.12 0.88 -0.12 1.24 c0 0.88 0.2 0.68 0.2 1.08 c0 0.08 -0.12 0.56 -0.12 0.64 c0 1.08 -0.04 1.96 -0.2 3.16 l-0.08 0.08 c0.04 0.12 0.08 0.12 0.08 0.12 l0.08 0 c0 0.56 0.16 1.12 0.16 1.8 c0 0.56 -0.2 0.76 -0.2 1.12 c0 0.32 0.2 0.48 0.2 0.76 c0 0.12 -0.08 0.12 -0.08 0.2 c0 0.16 0.04 0.16 0.08 0.28 l-0.08 0.12 c0 0.12 0.04 0.12 0.08 0.2 c0 0.08 -0.12 0.2 -0.2 0.36 c0 0.08 0.16 0.4 0.16 0.52 l0 0.04 c0 1.08 0.08 1.64 0.08 2.6 c0 0.28 -0.08 0.56 -0.08 0.84 z M36.080000000000005 34.68 l-0.08 0.2 c0.04 -0.08 0.08 0 0.08 -0.2 z M27.080000000000005 34.12 c-0.04 0 -0.04 0.04 -0.04 0.08 c0 0.08 0 0.12 0.04 0.12 c0.08 0 0.08 -0.04 0.08 -0.12 c0 -0.04 0 -0.08 -0.08 -0.08 z M24.720000000000002 34.04 c-0.04 0 -0.08 0.04 -0.08 0.08 c0 0.08 0.04 0.12 0.08 0.12 s0.08 -0.04 0.08 -0.12 c0 -0.04 -0.04 -0.08 -0.08 -0.08 z M34.800000000000004 33.28 l0 0.08 l0.08 0 l0 -0.08 l-0.08 0 z M36.120000000000005 32.6 c-0.04 0 -0.04 0.04 -0.04 0.08 c0 0.08 0 0.12 0.04 0.12 c0.08 0 0.08 -0.04 0.08 -0.12 c0 -0.04 0 -0.08 -0.08 -0.08 z M27.960000000000004 32.28 l-0.04 0 s-0.04 0.04 -0.04 0.08 s0.04 0.08 0.08 0.12 c0.04 0 0.08 -0.04 0.08 -0.12 c0 -0.04 -0.04 -0.08 -0.08 -0.08 z M36.440000000000005 32.04 c-0.04 0 -0.08 0.04 -0.08 0.08 s0.04 0.08 0.08 0.08 s0.08 -0.04 0.08 -0.08 s-0.04 -0.08 -0.08 -0.08 z M35.760000000000005 31.84 c-0.04 0 -0.04 0 -0.04 0.04 c0 0 0 0.04 0.04 0.04 s0.08 -0.04 0.08 -0.04 c0 -0.04 -0.04 -0.04 -0.08 -0.04 z M34.52 31.759999999999998 c-0.04 0 -0.04 0.04 -0.04 0.08 s0 0.08 0.04 0.08 s0.08 -0.04 0.08 -0.08 s-0.04 -0.08 -0.08 -0.08 z M27.680000000000003 31.28 c0 0.04 -0.04 0.16 -0.04 0.24 s0.04 0.16 0.12 0.16 c0.2 -0.08 0.2 -0.56 0.2 -0.72 l-0.04 0 c-0.16 0 -0.24 0.12 -0.24 0.32 z M34.120000000000005 31.36 c-0.04 0 -0.04 0.04 -0.04 0.08 c0 0.08 0 0.12 0.04 0.12 c0.08 0 0.08 -0.04 0.08 -0.12 c0 -0.04 0 -0.08 -0.08 -0.08 z M35.96 31.36 l0 0.08 l0.08 -0.08 l-0.08 0 z M36.800000000000004 31.36 l-0.08 0.08 l0.08 0 l0 -0.08 z M35.080000000000005 30.880000000000003 c-0.2 0 -0.36 0.2 -0.36 0.4 c0.16 0 0.36 -0.2 0.36 -0.4 z M37.2 31.119999999999997 c-0.04 0 -0.08 0.04 -0.08 0.08 c0 0.08 0.04 0.12 0.08 0.12 s0.08 -0.04 0.08 -0.12 c0 -0.04 -0.04 -0.08 -0.08 -0.08 z M28.6 31.04 c-0.04 0 -0.04 0.04 -0.04 0.08 c0 0.08 0 0.12 0.04 0.12 c0.08 0 0.08 -0.04 0.08 -0.12 c0 -0.04 0 -0.08 -0.08 -0.08 z M35.84 31.08 c-0.04 0 -0.04 0.04 -0.04 0.08 c0 0.08 0 0.12 0.04 0.12 c0.08 0 0.08 -0.04 0.08 -0.12 c0 -0.04 0 -0.08 -0.08 -0.08 z M36.800000000000004 30.52 c-0.04 0 -0.04 0.04 -0.04 0.08 s0 0.08 0.04 0.08 s0.08 -0.04 0.08 -0.08 s-0.04 -0.08 -0.08 -0.08 z M26.440000000000005 30.240000000000002 c-0.04 0 -0.08 0.04 -0.08 0.08 c0 0.08 0.04 0.12 0.08 0.12 s0.08 -0.04 0.08 -0.12 c0 -0.04 -0.04 -0.08 -0.08 -0.08 z M27.960000000000004 30.28 l-0.04 0 s-0.04 0.04 -0.04 0.08 s0.04 0.08 0.08 0.12 c0.04 0 0.08 -0.04 0.08 -0.12 c0 -0.04 -0.04 -0.08 -0.08 -0.08 z M33.88 29.84 c-0.04 0 -0.08 0.08 -0.08 0.12 s0 0.08 0.04 0.08 c0.08 0 0.12 -0.08 0.12 -0.12 s-0.04 -0.08 -0.08 -0.08 z M26.760000000000005 29.68 c-0.08 0 -0.12 0.04 -0.12 0.08 s0.04 0.08 0.08 0.08 s0.08 -0.08 0.08 -0.12 s0 -0.04 -0.04 -0.04 z M36.160000000000004 29.560000000000002 c0 0.2 0 0.28 0.2 0.28 s0.28 -0.2 0.28 -0.4 c-0.08 0 -0.16 0.12 -0.48 0.12 z M26.640000000000004 29.28 c-0.04 0 -0.04 0.04 -0.04 0.08 c0 0.08 0 0.12 0.04 0.12 c0.08 0 0.08 -0.04 0.08 -0.12 c0 -0.04 0 -0.08 -0.08 -0.08 z M26.480000000000004 29.2 l0 0.08 l0.08 0 z M33.32000000000001 29.28 c0.08 0.04 0 0.08 0.2 0.08 c-0.12 -0.12 -0.2 -0.08 -0.2 -0.08 z M24.640000000000004 29 c-0.04 0 -0.04 0.04 -0.04 0.08 c0 0.08 0 0.12 0.04 0.12 c0.08 0 0.08 -0.04 0.08 -0.12 c0 -0.04 0 -0.08 -0.08 -0.08 z M27.040000000000003 28.52 c-0.04 0 -0.08 0.04 -0.08 0.08 c0 0.08 0.04 0.12 0.08 0.12 s0.08 -0.04 0.08 -0.12 c0 -0.04 -0.04 -0.08 -0.08 -0.08 z M27.400000000000002 28.52 c-0.04 0 -0.04 0.04 -0.04 0.08 c0 0.08 0 0.12 0.04 0.12 c0.08 0 0.08 -0.04 0.08 -0.12 c0 -0.04 0 -0.08 -0.08 -0.08 z M33.800000000000004 28.6 l-0.08 0.08 l0.08 0 l0 -0.08 z M24.480000000000004 28.04 l0 0.2 l0.08 0 c0 -0.12 0 -0.2 -0.08 -0.2 z M27.040000000000003 28.04 c0 0.12 0.04 0.12 0.08 0.2 l0 -0.12 z M24.560000000000002 27.759999999999998 l0 0.08 l0.08 0 l0 -0.08 l-0.08 0 z M24.640000000000004 27.48 c-0.04 0 -0.04 0.04 -0.04 0.08 c0 0.08 0 0.12 0.04 0.12 c0.08 0 0.08 -0.04 0.08 -0.12 c0 -0.04 0 -0.08 -0.08 -0.08 z M37.040000000000006 27.560000000000002 c-0.04 0 -0.08 0.04 -0.08 0.08 c0 0.08 0.04 0.12 0.12 0.12 c0 0 0.04 -0.04 0.04 -0.08 s-0.04 -0.12 -0.08 -0.12 z M24.000000000000004 27.36 c-0.04 0 -0.08 0.04 -0.08 0.08 c0 0.08 0.04 0.12 0.08 0.12 s0.08 -0.04 0.08 -0.12 c0 -0.04 -0.04 -0.08 -0.08 -0.08 z M27.320000000000004 27.28 l0 -0.04 c-0.04 0 -0.12 0.08 -0.12 0.08 c0 0.04 0 0.04 0.04 0.04 c0.08 0 0.08 0 0.08 -0.08 z M33.52 27.28 c-0.04 0 -0.08 0 -0.08 0.04 c0 0 0.04 0.04 0.08 0.04 s0.08 -0.04 0.08 -0.04 c0 -0.04 -0.04 -0.04 -0.08 -0.04 z M27.6 26.8 c0 0.12 0.12 0.2 0.2 0.28 c0 -0.08 0.04 -0.28 -0.08 -0.28 l-0.12 0 z M35.72 26.2 c-0.04 0 -0.08 0.04 -0.08 0.04 c0 0.04 0.04 0.08 0.08 0.08 s0.08 -0.04 0.08 -0.08 c0 0 -0.04 -0.04 -0.08 -0.04 z M34.64 26.04 c-0.04 0 -0.04 0.04 -0.04 0.08 s0 0.08 0.04 0.08 c0.08 0 0.08 -0.04 0.08 -0.08 s0 -0.08 -0.08 -0.08 z M34.84 26.04 c-0.04 0 -0.04 0.04 -0.04 0.08 s0 0.08 0.04 0.08 s0.08 -0.04 0.08 -0.08 s-0.04 -0.08 -0.08 -0.08 z M35.6 25.92 l0 0.12 l0.12 -0.12 l-0.12 0 z M26.680000000000003 25.2 l-0.12 0.08 z M27.560000000000002 25.08 c-0.08 0 -0.12 0.04 -0.12 0.12 c0 0.04 0.04 0.08 0.08 0.08 s0.08 -0.08 0.08 -0.12 s0 -0.08 -0.04 -0.08 z M27.360000000000003 25 l0 -0.04 c-0.04 0 -0.12 0.08 -0.12 0.08 c0 0.04 0 0.04 0.04 0.04 c0.08 0 0.08 0 0.08 -0.08 z M27.28 24.6 c-0.2 0 -0.4 0.12 -0.48 0.32 c-0.2 0 0.48 0.04 0.48 -0.32 z M28.040000000000003 24 c-0.04 0 -0.08 0.04 -0.08 0.08 s0.04 0.08 0.08 0.08 s0.08 -0.04 0.08 -0.08 s-0.04 -0.08 -0.08 -0.08 z M27.080000000000005 23.68 c0 0.08 0 0.16 0.08 0.16 l0 -0.16 l-0.08 0 z M26.960000000000004 23.28 c0 -0.04 0 -0.08 -0.04 -0.08 c0 0 -0.04 0.04 -0.04 0.08 s0.04 0.04 0.04 0.04 c0.04 0 0.04 0 0.04 -0.04 z M27.160000000000004 23 c-0.04 0 -0.04 0 -0.04 0.04 c0 0 0 0.04 0.04 0.04 c0.08 0 0.08 -0.04 0.08 -0.04 c0 -0.04 0 -0.04 -0.08 -0.04 z M24.800000000000004 22.92 c-0.04 0 -0.08 0.04 -0.08 0.08 s0.04 0.08 0.08 0.08 s0.08 -0.04 0.08 -0.08 s-0.04 -0.08 -0.08 -0.08 z M26.6 22.92 l-0.08 0.08 l0.08 0 l0 -0.08 z M25.160000000000004 22.92 c0 -0.08 0 -0.08 -0.04 -0.08 c0 0 -0.04 0 -0.04 0.08 c0 0.04 0.04 0.04 0.04 0.04 c0.04 0 0.04 0 0.04 -0.04 z M25.640000000000004 22.72 c0 0.12 0.04 0.12 0.12 0.2 l0 -0.32 z M25.440000000000005 22.72 c-0.04 0 -0.04 0 -0.04 0.04 c0 0 0 0.04 0.04 0.04 c0.08 0 0.08 -0.04 0.08 -0.04 c0 -0.04 0 -0.04 -0.08 -0.04 z M36.040000000000006 22.52 c-0.04 0 -0.08 0.04 -0.08 0.08 s0.04 0.08 0.08 0.08 s0.08 -0.04 0.08 -0.08 s-0.04 -0.08 -0.08 -0.08 z M25.840000000000003 22.32 c-0.04 0 -0.04 0.04 -0.04 0.08 c0 0.08 0 0.12 0.04 0.12 s0.08 -0.04 0.08 -0.12 c0 -0.04 -0.04 -0.08 -0.08 -0.08 z M35.760000000000005 22.4 c-0.04 0 -0.08 0.04 -0.08 0.08 c0 0.08 0.04 0.12 0.08 0.12 s0.08 -0.04 0.08 -0.12 c0 -0.04 -0.04 -0.08 -0.08 -0.08 z M36.88 22.04 c-0.04 0 -0.04 0.04 -0.04 0.08 s0 0.08 0.04 0.08 s0.08 -0.04 0.08 -0.08 s-0.04 -0.08 -0.08 -0.08 z M24.800000000000004 21.76 l-0.12 0.08 l0 0.12 z M33.28 21.76 c-0.04 0 -0.08 0.04 -0.08 0.08 s0.04 0.08 0.08 0.08 s0.08 -0.04 0.08 -0.08 s-0.04 -0.08 -0.08 -0.08 z M35.84 21.76 c-0.04 0 -0.04 0.04 -0.04 0.08 s0 0.08 0.04 0.08 s0.08 -0.04 0.08 -0.08 s-0.04 -0.08 -0.08 -0.08 z M24.200000000000003 21.08 l0.32 0.12 c0 -0.12 0.04 -0.28 -0.12 -0.28 z M27.160000000000004 21.08 l0 0.12 l0.12 0 l0 -0.12 l-0.12 0 z M36.160000000000004 20.32 c0 0.12 0.08 0.48 0.24 0.48 c0.08 -0.04 0.36 -0.32 0.24 -0.4 l-0.2 0 c0 -0.28 0.12 -0.36 0.12 -0.64 c-0.32 0 -0.4 0.36 -0.4 0.56 z M36.84 20.2 l0 0.12 l0.08 0 z M35.2 20.12 c-0.04 0 -0.04 0.04 -0.04 0.08 c0 0.08 0 0.12 0.04 0.12 c0.08 0 0.08 -0.04 0.08 -0.12 c0 -0.04 0 -0.08 -0.08 -0.08 z M24.640000000000004 19.84 c-0.04 0 -0.04 0.04 -0.04 0.08 c0 0.08 0 0.12 0.04 0.12 s0.08 -0.04 0.08 -0.12 c0 -0.04 -0.04 -0.08 -0.08 -0.08 z M24.640000000000004 19.56 c-0.04 0 -0.04 0.04 -0.04 0.08 c0 0.08 0 0.12 0.04 0.12 s0.08 -0.04 0.08 -0.12 c0 -0.04 -0.04 -0.08 -0.08 -0.08 z M24.640000000000004 19.36 c-0.04 0 -0.04 0.04 -0.04 0.08 c0 0.08 0 0.12 0.04 0.12 s0.08 -0.04 0.08 -0.12 c0 -0.04 -0.04 -0.08 -0.08 -0.08 z M24.080000000000002 19 c-0.04 0 -0.08 0 -0.08 0.04 c0 0 0.04 0.04 0.08 0.04 s0.08 -0.04 0.08 -0.04 c0 -0.04 -0.04 -0.04 -0.08 -0.04 z M33.120000000000005 18.6 c-0.04 0 -0.08 0.04 -0.08 0.08 c0 0.08 0.04 0.12 0.08 0.12 s0.08 -0.04 0.08 -0.12 c0 -0.04 -0.04 -0.08 -0.08 -0.08 z M24.640000000000004 17.84 l0 0.2 c0.08 0 0.08 -0.08 0.08 -0.2 l-0.08 0 z M34.92 18.04 c-0.04 0 -0.04 0.04 -0.04 0.08 s0 0.08 0.04 0.08 s0.08 -0.04 0.08 -0.08 s-0.04 -0.08 -0.08 -0.08 z M25.680000000000003 17.36 c0.08 0.08 0.08 0.12 0.2 0.12 l-0.08 -0.12 l-0.12 0 z M24.640000000000004 17.28 c-0.04 0 -0.04 0.04 -0.04 0.08 c0 0.08 0 0.12 0.04 0.12 s0.08 -0.04 0.08 -0.12 c0 -0.04 -0.04 -0.08 -0.08 -0.08 z M24.720000000000002 16.8 c0 -0.04 0 -0.08 -0.04 -0.08 c0 0 -0.04 0.04 -0.04 0.08 s0.04 0.08 0.04 0.08 c0.04 0 0.04 -0.04 0.04 -0.08 z M36.64 16.68 c-0.04 0 -0.04 0.04 -0.04 0.08 c0 0.08 0 0.12 0.04 0.12 s0.08 -0.04 0.08 -0.12 c0 -0.04 -0.04 -0.08 -0.08 -0.08 z M33.88 16.2 c-0.04 0 -0.04 0.04 -0.04 0.08 c0 0.08 0 0.12 0.04 0.12 s0.08 -0.04 0.08 -0.12 c0 -0.04 -0.04 -0.08 -0.08 -0.08 z M35.480000000000004 16.2 c-0.04 0 -0.04 0.04 -0.04 0.08 c0 0.08 0 0.12 0.04 0.12 c0.08 0 0.08 -0.04 0.08 -0.12 c0 -0.04 0 -0.08 -0.08 -0.08 z M33.160000000000004 16.04 c-0.08 0 -0.12 0.04 -0.12 0.08 s0.04 0.08 0.08 0.08 s0.08 -0.08 0.08 -0.12 s0 -0.04 -0.04 -0.04 z M23.520000000000003 15.48 l0 0.2 l-0.08 0 z M34.2 14.879999999999999 c0.08 0.08 0 0.12 0.2 0.12 c-0.08 -0.16 -0.24 -0.12 -0.2 -0.12 z M34.480000000000004 14.52 c0.2 0.08 0.28 0.08 0.48 0.08 c0 -0.2 0 -0.28 -0.2 -0.4 z M35.36 14.32 c-0.04 0 -0.08 0.04 -0.08 0.08 c0 0.08 0.04 0.12 0.08 0.12 s0.08 -0.04 0.08 -0.12 c0 -0.04 -0.04 -0.08 -0.08 -0.08 z M26.6 13.760000000000002 l0 0.08 l0.08 0 z M26.200000000000003 13.68 l0.08 0.08 l0.12 -0.08 l-0.2 0 z M34.28 13.079999999999998 l0 0.08 l0.12 0 l0 -0.08 l-0.12 0 z M34.2 12.879999999999999 c-0.04 0 -0.04 0.04 -0.04 0.04 c0 0.04 0 0.08 0.04 0.08 s0.08 -0.04 0.08 -0.08 c0 0 -0.04 -0.04 -0.08 -0.04 z M33.040000000000006 12.600000000000001 l0.12 0.08 c0.12 -0.08 0.2 -0.12 0.2 -0.28 l-0.2 -0.2 c-0.08 0.12 -0.12 0.36 -0.12 0.4 z M32.96 12.2 c0 -0.04 0 -0.08 -0.04 -0.08 c0 0 -0.04 0.04 -0.04 0.08 s0.04 0.08 0.04 0.08 c0.04 0 0.04 -0.04 0.04 -0.08 z M34 12.120000000000001 c-0.08 0 -0.16 0 -0.16 0.08 l0.16 0 l0 -0.08 z M34.2 12.04 c-0.04 0 -0.04 0 -0.04 0.04 c0 0 0 0.04 0.04 0.04 s0.08 -0.04 0.08 -0.04 c0 -0.04 -0.04 -0.04 -0.08 -0.04 z M35.2 11.440000000000001 c-0.04 0.4 -0.44 0.4 -0.44 0.68 l-0.08 0 c0.28 -0.12 0.56 -0.2 0.56 -0.6 c0 -0.04 0 -0.08 -0.04 -0.08 z M35.52 11.559999999999999 c-0.08 0.12 -0.08 0.32 -0.08 0.28 c0.04 -0.08 0.08 -0.2 0.08 -0.28 z M33 11.36 c-0.04 0 -0.08 0.08 -0.08 0.12 s0 0.08 0.04 0.08 s0.08 -0.08 0.08 -0.12 s0 -0.08 -0.04 -0.08 z M33.28 11.280000000000001 c-0.04 0 -0.04 0 -0.04 0.04 c0 0 0 0.04 0.04 0.04 c0.08 0 0.08 -0.04 0.08 -0.04 c0 -0.04 0 -0.04 -0.08 -0.04 z M35 11.16 c-0.04 0 -0.04 0.04 -0.04 0.08 c0 0.08 0 0.12 0.04 0.12 s0.08 -0.04 0.08 -0.12 c0 -0.04 -0.04 -0.08 -0.08 -0.08 z M34.800000000000004 11.079999999999998 l0.12 0.08 l0 -0.08 l-0.12 0 z M34.64 10.879999999999999 c0 -0.04 -0.04 -0.08 -0.04 -0.08 c-0.04 0 -0.08 0.04 -0.08 0.08 s0.04 0.08 0.08 0.08 c0 0 0.04 -0.04 0.04 -0.08 z M35 10.8 c-0.04 0 -0.04 0.04 -0.04 0.08 c0 0.08 0 0.12 0.04 0.12 s0.08 -0.04 0.08 -0.12 c0 -0.04 -0.04 -0.08 -0.08 -0.08 z M30.800000000000004 10.280000000000001 c-0.04 0 -0.04 0.04 -0.04 0.08 c0 0.08 0 0.12 0.04 0.12 c0.08 0 0.08 -0.04 0.08 -0.12 c0 -0.04 0 -0.08 -0.08 -0.08 z M24.320000000000004 9.96 c-0.04 0 -0.04 0.04 -0.04 0.08 s0 0.08 0.04 0.08 c0.08 0 0.08 -0.04 0.08 -0.08 s0 -0.08 -0.08 -0.08 z M28.160000000000004 7.119999999999997 c0 -0.04 -0.04 -0.08 -0.04 -0.08 c-0.04 0 -0.08 0.04 -0.08 0.08 s0.04 0.08 0.08 0.08 c0 0 0.04 -0.04 0.04 -0.08 z M31.440000000000005 6.359999999999999 c0 0.04 -0.04 0.08 -0.04 0.08 c-0.04 0 -0.08 -0.04 -0.08 -0.08 s0.04 -0.08 0.08 -0.08 c0 0 0.04 0.04 0.04 0.08 z M30.360000000000003 5.799999999999997 c0.08 0 0.08 0.04 0.08 0.08 c0 0.08 0 0.12 -0.08 0.12 c-0.04 0 -0.04 -0.04 -0.04 -0.12 c0 -0.04 0 -0.08 0.04 -0.08 z M44.52 38.08 l0.08 -0.28 c0 -0.28 -0.28 -0.48 -0.28 -0.76 c0 -1.16 0.92 -2.44 2.16 -2.44 c0.36 0 0.56 0.2 0.84 0.2 c0.48 0 0.48 -2.52 0.48 -3.64 c0 -0.68 -0.24 -1.24 -0.24 -1.8 l0 -0.12 c0 -0.16 0.16 -1.32 0.16 -1.52 c0 -0.28 -0.04 -0.84 -0.36 -1.04 c0.28 -0.08 0.32 -0.2 0.32 -0.48 s-0.08 -0.6 -0.08 -0.96 c0 -0.08 0.08 -0.36 0.08 -0.44 l0.04 -4 l-0.08 -0.12 c0 -0.08 0.08 -0.68 0.16 -0.68 l0 -1.32 c-0.08 -0.08 -0.16 -0.28 -0.16 -0.36 c0 -0.44 0.36 -0.64 0.36 -0.8 c0 -0.32 -0.16 -0.6 -0.16 -0.84 c0 -0.36 0.12 -0.56 0.12 -0.84 c0 -0.48 -0.12 -0.76 -0.12 -1.24 c0 -0.64 0.12 -0.68 0.12 -0.96 c0 -0.08 -0.2 -0.48 -0.2 -0.56 l0.08 -0.28 c-0.04 0 0.08 -1.08 -0.4 -1.08 l-0.96 0.2 l-0.28 -0.08 c-0.08 0 -0.76 -0.04 -0.76 0.48 l-0.04 4.48 c0 0.16 -0.2 0.36 -0.32 0.44 l0.16 0.12 c0 0.64 0.12 1.24 0.12 1.88 c0 1.12 -1.8 0.64 -2.12 0.92 l-0.36 -0.2 c-0.32 -0.04 -0.64 0.12 -0.96 0.12 c-1.52 -0.04 -0.76 -1.8 -1.16 -2.2 l0.04 -3.12 c-0.08 -0.2 -0.08 -0.48 -0.28 -0.6 c0 -0.08 0.4 -0.64 0.4 -0.76 c0 -0.08 -0.12 -0.2 -0.2 -0.2 l0.04 -2 l-0.2 -0.28 c0 -0.16 0.12 -0.32 0.12 -0.48 l-0.4 -0.32 c0 -0.4 0.4 -0.2 0.4 -0.92 c0 -0.16 -0.32 -0.48 -0.32 -0.68 c0 -0.28 0.72 -0.28 0.44 -0.72 c-0.04 0.4 0.72 -1.44 1.8 -1.44 c0.12 0 0.76 0.08 0.88 0.08 c0.36 0.04 0.6 -0.16 0.84 -0.16 l0.08 0.08 l3.52 0.04 c0.2 0.08 0.48 0.2 0.8 0.2 c0.28 0 0.56 -0.2 0.84 -0.2 c0.36 0.04 0.76 0.12 1.16 0.12 c0 0.04 0.24 -0.08 0.36 -0.16 c0.08 0 0.4 0.08 0.48 0.08 c0.4 0.04 1.08 -0.08 1.6 -0.08 c0.4 0 0.6 0.08 1.04 0.08 c0.36 0 0.68 -0.04 0.96 -0.04 l0 0.16 c0.12 -0.16 0.48 -0.16 0.68 -0.16 c0.28 0 0.28 0.08 0.48 0.08 c0.68 0 1.44 -0.2 2.08 -0.2 c1.32 0.6 1.88 0.72 1.88 2.08 c0 0.44 -0.08 0.84 -0.08 1.12 c0 0.36 0.16 0.64 0.16 0.96 c0 0.16 -0.08 0.28 -0.08 0.36 c0 0.2 0.08 1.16 0.08 1.92 l0.08 0.2 c0 0.16 -0.04 0.36 -0.04 0.52 c0 1 0.28 1.88 0.28 2.88 c0 0.12 -0.04 0.24 -0.16 0.28 l-0.04 2.4 c-0.16 0.92 -0.84 1.44 -1.72 1.44 c-0.08 -0.04 -0.28 -0.04 -0.28 -0.04 l-0.2 -0.2 l-1.24 0 l-0.08 -0.12 l-0.2 0.12 c-0.16 -0.04 -0.6 -0.28 -0.76 -0.2 l-0.2 -0.36 l0.08 -7.56 c0 -0.36 -0.16 -0.76 -0.64 -0.76 c-0.2 0 -0.28 0.12 -0.48 0.12 c-0.08 0 -0.48 -0.16 -0.68 -0.16 c-0.16 -0.04 -0.64 0.16 -0.64 0.48 l0.08 0.28 c0 0.28 -0.08 0.52 -0.08 0.68 c0 0.32 0.04 0.72 0.12 0.96 l0 2.36 l-0.12 2.12 c0.2 0.2 0.2 1.72 0.2 2 c0.04 0.16 0 0.24 -0.12 0.36 c0 0.32 0.2 0.48 0.2 0.88 c0 0.24 0 0.48 -0.12 0.48 l-0.08 0 l-0.04 1.4 c0.08 0.04 0.28 1.12 0.28 1.72 l-0.08 0.2 l-0.04 1.32 l0.2 0.4 l-0.2 0 c0 1.12 0.08 2.2 0.08 3.32 c0 0.4 -0.08 0.68 -0.12 1.04 c0 0.4 0.08 0.68 0.08 1.08 c0 0.08 -0.16 0.36 -0.16 0.48 c0 -0.04 0 0.12 0.08 0.28 c0 0.08 -0.08 0.36 -0.08 0.48 c-0.08 0.68 0.12 0.76 0.28 1.12 c1.24 0.16 2 -0.16 2.32 1.08 c0.12 0.2 0.2 0.2 0.2 0.48 c0 0.68 -0.08 1.24 -0.08 2 l-0.2 0.2 l0.2 0.2 c0 0.56 -0.4 1.52 -1.04 1.52 c-0.76 0 -1.64 -0.16 -2.4 -0.16 s-1.48 0.12 -1.92 0.12 c-0.16 0 -0.28 -0.12 -0.44 -0.12 c-0.44 0 -1.84 -0.04 -2.24 0.28 c-1.08 0 -1.28 -0.2 -1.68 -0.2 l-0.24 0.2 c-0.56 -0.12 -1.76 -1.16 -1.76 -2.24 z M50.720000000000006 39.6 c-0.04 0 -0.08 0 -0.08 0.04 c0 0 0.04 0.04 0.08 0.04 s0.08 -0.04 0.08 -0.04 c0 -0.04 -0.04 -0.04 -0.08 -0.04 z M52.040000000000006 39.2 l0 0.08 l0.08 -0.08 l-0.08 0 z M48.60000000000001 38.68 l0 0.12 l0.12 0 l0 -0.12 l-0.12 0 z M50.120000000000005 38.44 c-0.04 0 -0.04 0 -0.04 0.04 c0 0 0 0.04 0.04 0.04 c0.08 0 0.08 -0.04 0.08 -0.04 c0 -0.04 0 -0.04 -0.08 -0.04 z M51.36000000000001 37.68 c0.08 0.04 0.08 0.08 0.2 0.08 l-0.08 -0.08 l-0.12 0 z M53.00000000000001 37.6 l-0.12 0.08 l0.12 0 l0 -0.08 z M50.720000000000006 37.28 c-0.12 0 -0.12 0.2 -0.12 0.32 c0.12 0 0.2 -0.12 0.28 -0.2 c-0.04 -0.08 -0.04 -0.12 -0.16 -0.12 z M51.480000000000004 37.4 l0 0.08 l0.08 0 l0 -0.08 l-0.08 0 z M47.760000000000005 37.36 c0 -0.08 -0.04 -0.08 -0.04 -0.08 c-0.04 0 -0.08 0 -0.08 0.08 c0 0.04 0.04 0.04 0.08 0.04 c0 0 0.04 0 0.04 -0.04 z M54.040000000000006 37.2 c-0.04 0 -0.04 0.04 -0.04 0.08 c0 0.08 0 0.12 0.08 0.12 c0 0 0.04 -0.04 0.04 -0.08 s-0.04 -0.12 -0.08 -0.12 z M54.800000000000004 37.24 c-0.04 0 -0.04 0.04 -0.04 0.08 c0 0.08 0 0.12 0.04 0.12 s0.08 -0.04 0.08 -0.12 c0 -0.04 -0.04 -0.08 -0.08 -0.08 z M51.00000000000001 37.12 c-0.04 0 -0.08 0.04 -0.08 0.08 s0.04 0.08 0.08 0.08 s0.08 -0.04 0.08 -0.08 s-0.04 -0.08 -0.08 -0.08 z M47.64000000000001 36.88 c-0.08 0 -0.08 0.08 -0.08 0.2 l0.2 0 c0 -0.12 0 -0.2 -0.12 -0.2 z M44.52 36.76 c-0.04 0 -0.04 0 -0.04 0.04 c0 0 0 0.04 0.04 0.04 s0.08 -0.04 0.08 -0.04 c0 -0.04 -0.04 -0.04 -0.08 -0.04 z M53.2 36.92 c0 -0.04 -0.04 -0.08 -0.04 -0.08 c-0.04 0 -0.08 0.04 -0.08 0.08 s0.04 0.04 0.08 0.04 c0 0 0.04 0 0.04 -0.04 z M54.040000000000006 36.52 c-0.2 0.12 -0.4 0.2 -0.4 0.4 c0.16 0 0.48 0.04 0.48 -0.16 c0 -0.08 0 -0.2 -0.08 -0.24 z M49.36000000000001 36.68 c-0.04 0 -0.04 0.04 -0.04 0.04 c0 0.04 0 0.08 0.04 0.08 c0.08 0 0.08 -0.04 0.08 -0.08 c0 0 0 -0.04 -0.08 -0.04 z M52.88000000000001 36.44 c-0.16 0 -0.28 0.08 -0.28 0.28 c0.2 0 0.28 -0.08 0.28 -0.28 z M50.440000000000005 36.44 c-0.04 0 -0.08 0.04 -0.08 0.08 c0 0.08 0.04 0.12 0.08 0.12 s0.08 -0.04 0.08 -0.12 c0 -0.04 -0.04 -0.08 -0.08 -0.08 z M51.56 36.44 c-0.04 0 -0.04 0.04 -0.04 0.08 c0 0.08 0 0.12 0.04 0.12 s0.08 -0.04 0.08 -0.12 c0 -0.04 -0.04 -0.08 -0.08 -0.08 z M49.84 36.24 c-0.04 0 -0.04 0.04 -0.04 0.08 c0 0.08 0 0.12 0.04 0.12 c0.08 0 0.08 -0.04 0.08 -0.12 c0 -0.04 0 -0.08 -0.08 -0.08 z M50.88000000000001 36.04 c-0.08 0 -0.08 0.12 -0.08 0.2 l0.28 0 z M49.60000000000001 35.68 l-0.04 0.08 c0.08 0.08 0 0.12 0.2 0.12 l-0.16 -0.2 l0 0 z M48.480000000000004 35.36 l0 0.2 l0.08 -0.12 z M51.800000000000004 35.480000000000004 c-0.04 0 -0.08 0.04 -0.08 0.04 c0 0.04 0.04 0.08 0.08 0.08 s0.08 -0.04 0.08 -0.08 c0 0 -0.04 -0.04 -0.08 -0.04 z M49.68000000000001 35.4 c0.08 0.04 0.08 0.08 0.2 0.08 l-0.08 -0.08 l-0.12 0 z M46.84 34.88 c-0.04 0 -0.04 0.04 -0.04 0.08 c0 0.08 0 0.12 0.04 0.12 s0.08 -0.04 0.08 -0.12 c0 -0.04 -0.04 -0.08 -0.08 -0.08 z M50.160000000000004 34.72 c0 0.12 0 0.2 0.2 0.28 c0.12 0 0.12 -0.08 0.12 -0.16 c0 -0.12 0 -0.32 -0.12 -0.32 c-0.2 0 -0.2 0.12 -0.2 0.2 z M52.00000000000001 34.44 c0 -0.04 -0.04 -0.08 -0.04 -0.08 c-0.04 0 -0.08 0.04 -0.08 0.08 s0.04 0.04 0.08 0.04 c0 0 0.04 0 0.04 -0.04 z M52.64000000000001 34.36 c-0.04 0 -0.04 0.04 -0.04 0.08 s0 0.08 0.04 0.08 c0.08 0 0.08 -0.04 0.08 -0.08 s0 -0.08 -0.08 -0.08 z M53.24000000000001 34.36 c-0.04 0 -0.08 0.04 -0.08 0.08 s0.04 0.08 0.08 0.08 s0.08 -0.04 0.08 -0.08 s-0.04 -0.08 -0.08 -0.08 z M50.36000000000001 33.480000000000004 c0 -0.04 -0.04 -0.08 -0.08 -0.08 c-0.08 0 -0.12 0.04 -0.12 0.08 s0.04 0.08 0.12 0.08 c0.04 0 0.08 -0.04 0.08 -0.08 z M50.080000000000005 32.24 c-0.04 0 -0.04 0.04 -0.04 0.04 c0 0.04 0 0.08 0.04 0.08 s0.08 -0.04 0.08 -0.08 c0 0 -0.04 -0.04 -0.08 -0.04 z M51.24000000000001 32.24 c-0.04 0 -0.08 0.04 -0.08 0.08 c0 0.08 0.04 0.12 0.08 0.12 s0.08 -0.04 0.08 -0.12 c0 -0.04 -0.04 -0.08 -0.08 -0.08 z M51.120000000000005 32.16 c0 -0.08 0 -0.08 -0.04 -0.08 c0 0 -0.04 0 -0.04 0.08 c0 0.04 0.04 0.04 0.04 0.04 c0.04 0 0.04 0 0.04 -0.04 z M50.080000000000005 31.759999999999998 c-0.04 0 -0.04 0.04 -0.04 0.04 c0 0.04 0 0.08 0.04 0.08 s0.08 -0.04 0.08 -0.08 c0 0 -0.04 -0.04 -0.08 -0.04 z M49.92 30.240000000000002 l0 0.12 l0.12 0 l0 -0.12 l-0.12 0 z M50.96000000000001 30.04 c-0.04 0 -0.04 0.04 -0.04 0.08 c0 0.08 0 0.12 0.04 0.12 c0.08 0 0.08 -0.04 0.08 -0.12 c0 -0.04 0 -0.08 -0.08 -0.08 z M48.040000000000006 29.64 c-0.04 0 -0.08 0.04 -0.08 0.08 c0 0.08 0.04 0.12 0.08 0.12 s0.08 -0.04 0.08 -0.12 c0 -0.04 -0.04 -0.08 -0.08 -0.08 z M51.440000000000005 29.4 c-0.04 0 -0.04 0.04 -0.04 0.08 c0 0.08 0 0.12 0.04 0.12 c0.08 0 0.08 -0.04 0.08 -0.12 c0 -0.04 0 -0.08 -0.08 -0.08 z M52.2 29.48 c0 -0.04 0 -0.08 -0.04 -0.08 c0 0 -0.04 0.04 -0.04 0.08 s0.04 0.08 0.04 0.08 c0.04 0 0.04 -0.04 0.04 -0.08 z M50.800000000000004 29 l0 0.28 l0.08 -0.08 z M51.28000000000001 28.84 l0 0.08 l0.08 0 l0 -0.08 l-0.08 0 z M53.160000000000004 28.64 c-0.04 0 -0.04 0.04 -0.04 0.08 c0 0.08 0 0.12 0.04 0.12 c0.08 0 0.08 -0.04 0.08 -0.12 c0 -0.04 0 -0.08 -0.08 -0.08 z M51.160000000000004 27.96 c-0.04 0 -0.04 0.04 -0.04 0.08 c0 0.08 0 0.12 0.04 0.12 c0.08 0 0.08 -0.04 0.08 -0.12 c0 -0.04 0 -0.08 -0.08 -0.08 z M51.160000000000004 27.759999999999998 c-0.08 0 -0.2 0 -0.2 0.12 l0.2 0 l0 -0.12 z M50.32000000000001 27.68 l0 0.08 l0.08 0 z M49.88000000000001 25.68 c-0.12 0 -0.12 0.36 -0.12 0.48 c0.2 0 0.32 -0.32 0.32 -0.4 c-0.08 -0.04 -0.08 -0.08 -0.2 -0.08 z M52.36000000000001 25.4 c-0.12 0.24 -0.32 0.28 -0.28 0.56 l0.36 -0.36 c0 -0.2 -0.04 -0.12 -0.08 -0.2 z M50.440000000000005 25 l0 0.12 l0.12 0 l0 -0.12 l-0.12 0 z M51.2 24.84 l0.12 0.08 l0 -0.08 l-0.12 0 z M50.56 24.72 c-0.12 0 -0.2 0 -0.2 0.12 l0.2 0 l0 -0.12 z M51.00000000000001 24.240000000000002 c0 0.16 0.16 0.24 0.16 0.4 c0 0 -0.04 0.04 -0.04 0.08 c0.24 -0.2 0.28 -0.44 0.28 -0.72 l0 -0.32 c-0.2 0 -0.4 0.48 -0.4 0.56 z M53.2 24.64 c-0.04 0 -0.04 0.04 -0.04 0.08 c0 0.08 0 0.12 0.04 0.12 c0.08 0 0.08 -0.04 0.08 -0.12 c0 -0.04 0 -0.08 -0.08 -0.08 z M52.24000000000001 24.439999999999998 c-0.04 0 -0.04 0.04 -0.04 0.08 c0 0.08 0 0.12 0.04 0.12 c0.08 0 0.08 -0.04 0.08 -0.12 c0 -0.04 0 -0.08 -0.08 -0.08 z M52.56 24.240000000000002 c-0.12 0 -0.12 0.12 -0.12 0.2 l0.12 0 l0 -0.2 z M52.84 22.92 c-0.2 0 -0.12 0.04 -0.2 0.08 c0 -0.04 0.04 0.04 0.2 -0.08 z M53.68000000000001 22.04 c0.04 0 0.08 0.04 0.08 0.04 c0 0.04 -0.04 0.08 -0.08 0.08 s-0.04 -0.04 -0.04 -0.08 c0 0 0 -0.04 0.04 -0.04 z M51.64000000000001 21.6 c-0.04 0 -0.08 0.04 -0.08 0.08 s0.04 0.08 0.08 0.08 s0.08 -0.04 0.08 -0.08 s-0.04 -0.08 -0.08 -0.08 z M52.00000000000001 21.4 c0 0.2 0.12 0.2 0.2 0.2 c0 -0.12 0 -0.32 -0.08 -0.32 z M52.28000000000001 20.52 c0 0.2 0.2 0.6 0.4 0.6 c0 -0.28 0 -0.6 -0.4 -0.6 z M52.88000000000001 21 c-0.04 0 -0.08 0.04 -0.08 0.08 c0 0.08 0.04 0.12 0.08 0.12 s0.08 -0.04 0.08 -0.12 c0 -0.04 -0.04 -0.08 -0.08 -0.08 z M51.160000000000004 20.64 c-0.12 0 -0.2 0.08 -0.2 0.2 c0.2 0.04 0.2 -0.12 0.2 -0.2 z M50.00000000000001 20.24 c0 0.2 0.12 0.2 0.28 0.28 c0.04 -0.08 -0.16 -0.28 -0.28 -0.28 z M51.52000000000001 20.04 l-0.08 0.12 l0.08 0 l0 -0.12 z M51.160000000000004 19.48 c0 0.12 0.08 0.2 0.2 0.2 l0 -0.28 c-0.12 0 -0.2 0 -0.2 0.08 z M51.800000000000004 19.6 c-0.04 0 -0.04 0 -0.04 0.04 c0 0 0 0.04 0.04 0.04 c0.08 0 0.08 -0.04 0.08 -0.04 c0 -0.04 0 -0.04 -0.08 -0.04 z M52.00000000000001 19.4 c-0.04 0 -0.04 0.04 -0.04 0.08 c0 0.08 0 0.12 0.04 0.12 c0.08 0 0.08 -0.04 0.08 -0.12 c0 -0.04 0 -0.08 -0.08 -0.08 z M51.92 19.28 c-0.04 0 -0.08 0.04 -0.08 0.08 c0 0.08 0.04 0.12 0.08 0.12 s0.08 -0.04 0.08 -0.12 c0 -0.04 -0.04 -0.08 -0.08 -0.08 z M50.480000000000004 19 c0 0.12 0.12 0.2 0.2 0.28 c0.04 -0.08 0 -0.28 -0.2 -0.28 z M52.760000000000005 19.12 c-0.08 0 -0.16 0.08 -0.28 0.16 l0.12 0 c0.08 0 0.16 -0.08 0.16 -0.16 z M51.800000000000004 19.12 c0 0.08 0.08 0.08 0.16 0.08 l0.24 0 l0 -0.08 l-0.4 0 z M44.96000000000001 18.92 c0 -0.04 0 -0.08 -0.04 -0.08 c0 0 -0.04 0.04 -0.04 0.08 s0.04 0.08 0.04 0.08 c0.04 0 0.04 -0.04 0.04 -0.08 z M52.120000000000005 18.64 c-0.12 0 -0.12 0.08 -0.12 0.2 l0.12 0 l0 -0.2 z M50.96000000000001 18.52 c-0.04 0 -0.04 0.04 -0.04 0.04 c0 0.04 0 0.08 0.04 0.08 s0.08 -0.04 0.08 -0.08 c0 0 -0.04 -0.04 -0.08 -0.04 z M51.160000000000004 18.36 c0 0.16 0.08 0.16 0.2 0.16 c0.08 0 0.16 -0.08 0.16 -0.16 c0 -0.12 0 -0.2 -0.08 -0.2 s-0.28 0.2 -0.28 0.2 z M51.800000000000004 18.44 l0 0.08 l0.12 0 z M42.96000000000001 18.08 c-0.04 0 -0.04 0.04 -0.04 0.08 c0 0.08 0 0.12 0.04 0.12 s0.08 -0.04 0.08 -0.12 c0 -0.04 -0.04 -0.08 -0.08 -0.08 z M43.64000000000001 17.88 c-0.04 0 -0.08 0 -0.08 0.04 c0 0 0.04 0.04 0.08 0.04 s0.08 -0.04 0.08 -0.04 c0 -0.04 -0.04 -0.04 -0.08 -0.04 z M47.92 17.84 c-0.04 0 -0.08 0.04 -0.08 0.08 s0.04 0.08 0.08 0.08 s0.08 -0.04 0.08 -0.08 s-0.04 -0.08 -0.08 -0.08 z M51.440000000000005 17.88 c-0.04 0 -0.04 0.04 -0.04 0.08 s0 0.08 0.04 0.08 s0.08 -0.04 0.08 -0.08 s-0.04 -0.08 -0.08 -0.08 z M51.92 17.88 c-0.2 0 -0.12 0.04 -0.2 0.08 c0 -0.04 0.04 0.04 0.2 -0.08 z M41.480000000000004 17.2 c-0.04 0.32 -0.44 0.32 -0.44 0.48 c0.28 0 0.4 -0.24 0.44 -0.48 z M52.480000000000004 17.4 c-0.08 0.08 -0.2 0.2 -0.2 0.28 l0.32 -0.08 c0 -0.2 -0.04 -0.12 -0.12 -0.2 z M52.2 17.48 c-0.04 0 -0.04 0.04 -0.04 0.08 c0 0.08 0 0.12 0.04 0.12 s0.08 -0.04 0.08 -0.12 c0 -0.04 -0.04 -0.08 -0.08 -0.08 z M50.28000000000001 17.4 c-0.04 0 -0.04 0.04 -0.04 0.08 c0 0.08 0 0.12 0.04 0.12 c0.08 0 0.08 -0.04 0.08 -0.12 c0 -0.04 0 -0.08 -0.08 -0.08 z M51.400000000000006 17.2 c0 0.04 0.04 0.16 0.04 0.28 l0.04 -0.28 l-0.08 0 z M52.120000000000005 17.4 c-0.04 0 -0.08 0.04 -0.08 0.08 c0 0.08 0.04 0.12 0.08 0.12 s0.08 -0.04 0.08 -0.12 c0 -0.04 -0.04 -0.08 -0.08 -0.08 z M56.760000000000005 17.44 c-0.04 0 -0.04 0.04 -0.04 0.08 c0 0.08 0 0.12 0.04 0.12 c0.08 0 0.08 -0.04 0.08 -0.12 c0 -0.04 0 -0.08 -0.08 -0.08 z M51.080000000000005 17.2 c-0.04 0 -0.08 0.08 -0.08 0.12 s0 0.08 0.04 0.08 c0.08 0 0.12 -0.08 0.12 -0.12 s-0.04 -0.08 -0.08 -0.08 z M52.040000000000006 17.2 c-0.04 0 -0.08 0.08 -0.08 0.12 s0 0.08 0.04 0.08 c0.08 0 0.12 -0.08 0.12 -0.12 s-0.04 -0.08 -0.08 -0.08 z M51.68000000000001 17.12 c-0.04 0 -0.08 0 -0.08 0.04 c0 0 0.04 0.04 0.08 0.04 s0.08 -0.04 0.08 -0.04 c0 -0.04 -0.04 -0.04 -0.08 -0.04 z M51.00000000000001 16.84 c-0.2 0 -0.2 0.16 -0.2 0.28 c0.2 0 0.2 -0.2 0.2 -0.28 z M52.160000000000004 16.64 c-0.12 0.08 -0.2 0.2 -0.2 0.28 c0.24 0.04 0.2 -0.08 0.2 -0.28 z M43.56 16.64 l0 0.12 l0.12 -0.12 l-0.12 0 z M51.96000000000001 16.16 l-0.12 0.08 l0.12 0 l0 -0.08 z M56.720000000000006 16.2 c-0.04 0 -0.04 0.04 -0.04 0.08 c0 0.08 0 0.12 0.04 0.12 s0.08 -0.04 0.08 -0.12 c0 -0.04 -0.04 -0.08 -0.08 -0.08 z M56.92 16.08 l0 0.12 l0.16 0 c-0.08 -0.2 -0.2 -0.12 -0.16 -0.12 z M57.760000000000005 16.08 l0.08 0.12 l0 -0.12 l-0.08 0 z M57.96000000000001 15.8 c-0.04 0 -0.08 0.04 -0.08 0.08 c0 0.08 0.04 0.12 0.08 0.12 s0.08 -0.04 0.08 -0.12 c0 -0.04 -0.04 -0.08 -0.08 -0.08 z M51.56 15.120000000000001 c-0.08 0 -0.08 0.16 -0.08 0.28 l0.08 0 l0 -0.28 z M51.84 15.120000000000001 c-0.04 0 -0.04 0.04 -0.04 0.08 s0 0.08 0.04 0.08 c0.08 0 0.08 -0.04 0.08 -0.08 s0 -0.08 -0.08 -0.08 z M51.2 15.120000000000001 c0 -0.08 -0.04 -0.08 -0.04 -0.08 c-0.04 0 -0.08 0 -0.08 0.08 c0 0.04 0.04 0.04 0.08 0.04 c0 0 0.04 0 0.04 -0.04 z M56.92 15.16 c0 -0.08 -0.04 -0.08 -0.04 -0.08 c-0.04 0 -0.08 0 -0.08 0.08 c0 0.04 0.04 0.04 0.08 0.04 c0 0 0.04 0 0.04 -0.04 z M50.24000000000001 14.52 c-0.04 0 -0.04 0.04 -0.04 0.08 c0 0.08 0 0.12 0.04 0.12 s0.08 -0.04 0.08 -0.12 c0 -0.04 -0.04 -0.08 -0.08 -0.08 z M50.92 14.440000000000001 l0 0.2 c0.08 0 0.08 -0.12 0.08 -0.2 l-0.08 0 z M58.52000000000001 13.719999999999999 c-0.48 0.2 -0.28 0.48 -0.56 0.84 l0.08 0 c0.12 0 0.68 -0.56 0.68 -0.76 l-0.2 0.2 l0 -0.28 z M48.160000000000004 14.2 c-0.04 0 -0.08 0.04 -0.08 0.08 c0 0.08 0.04 0.12 0.08 0.12 s0.08 -0.04 0.08 -0.12 c0 -0.04 -0.04 -0.08 -0.08 -0.08 z M56.800000000000004 14.2 c-0.04 0 -0.04 0.04 -0.04 0.08 c0 0.08 0 0.12 0.04 0.12 c0.08 0 0.08 -0.04 0.08 -0.12 c0 -0.04 0 -0.08 -0.08 -0.08 z M57.080000000000005 14 c-0.04 0 -0.04 0.04 -0.04 0.08 c0 0.08 0 0.12 0.04 0.12 c0.08 0 0.08 -0.04 0.08 -0.12 c0 -0.04 0 -0.08 -0.08 -0.08 z M57.00000000000001 13.920000000000002 c-0.04 0 -0.04 0.04 -0.04 0.08 s0 0.08 0.04 0.08 s0.08 -0.04 0.08 -0.08 s-0.04 -0.08 -0.08 -0.08 z M59.28 13.96 c0.08 0.04 0.08 0.08 0.2 0.08 l-0.08 -0.2 z M56.92 13.8 c-0.04 0 -0.08 0.04 -0.08 0.08 c0 0.08 0.04 0.12 0.08 0.12 s0.08 -0.04 0.08 -0.12 c0 -0.04 -0.04 -0.08 -0.08 -0.08 z M57.2 13.8 c-0.04 0 -0.08 0.04 -0.08 0.08 c0 0.08 0.04 0.12 0.08 0.12 s0.08 -0.04 0.08 -0.12 c0 -0.04 -0.04 -0.08 -0.08 -0.08 z M51.28000000000001 13.68 l0 0.08 l0.2 0 l0 -0.08 l-0.2 0 z M50.32000000000001 13.48 l0 0.2 l0.2 -0.2 l-0.2 0 z M51.080000000000005 13.48 c-0.08 0 -0.28 0 -0.28 0.2 c0.12 0 0.28 0 0.28 -0.2 z M40.720000000000006 13.399999999999999 c0.04 0 0.08 0.04 0.08 0.08 c0 0.08 -0.04 0.12 -0.08 0.12 s-0.04 -0.04 -0.04 -0.12 c0 -0.04 0 -0.08 0.04 -0.08 z M43.56 13.120000000000001 l0 -0.04 c-0.04 0 -0.08 0.08 -0.08 0.08 l0 0.04 c0.08 0 0.08 0 0.08 -0.08 z M56.64000000000001 12.879999999999999 l0 0.08 l0.08 0 z M43.32000000000001 12.440000000000001 l-0.04 0.32 c0.12 0 0.24 -0.12 0.24 -0.2 l-0.08 -0.12 l-0.12 0 z M51.24000000000001 12.719999999999999 l-0.04 0.12 l0.08 0 l0.04 -0.12 l-0.08 0 z M57.440000000000005 12.68 c-0.08 0 -0.12 0.04 -0.12 0.12 c0 0.04 0.04 0.08 0.08 0.08 s0.08 -0.08 0.08 -0.12 s0 -0.08 -0.04 -0.08 z M52.080000000000005 12.64 c0 -0.08 0 -0.08 -0.04 -0.08 c0 0 -0.04 0 -0.04 0.08 c0 0.04 0.04 0.04 0.04 0.04 c0.04 0 0.04 0 0.04 -0.04 z M43.720000000000006 12.16 c-0.04 0 -0.08 0.04 -0.08 0.08 c0 0.08 0.04 0.12 0.08 0.12 s0.08 -0.04 0.08 -0.12 c0 -0.04 -0.04 -0.08 -0.08 -0.08 z M44.36000000000001 11.879999999999999 l0 0.08 l0.12 0 z M49.24000000000001 12 c0 -0.04 -0.04 -0.08 -0.04 -0.08 c-0.04 0 -0.08 0.04 -0.08 0.08 s0.04 0.08 0.08 0.08 c0 0 0.04 -0.04 0.04 -0.08 z M44.00000000000001 11.32 l0 0.2 l0.08 -0.2 l-0.08 0 z M50.480000000000004 11.48 c-0.04 0 -0.08 0.04 -0.08 0.08 c0 0.08 0.04 0.12 0.08 0.12 s0.08 -0.04 0.08 -0.12 c0 -0.04 -0.04 -0.08 -0.08 -0.08 z M49.800000000000004 11.120000000000001 c0 0.08 0.08 0.16 0.2 0.16 l0 -0.16 l-0.2 0 z M51.120000000000005 11.120000000000001 c-0.04 0 -0.04 0 -0.04 0.04 c0 0 0 0.04 0.04 0.04 c0.08 0 0.08 -0.04 0.08 -0.04 c0 -0.04 0 -0.04 -0.08 -0.04 z M49.040000000000006 10.8 l-0.08 0.08 l0.08 0 l0 -0.08 z M47.040000000000006 10.399999999999999 l0 0.08 l0.08 0 l0 -0.08 l-0.08 0 z M51.440000000000005 10.36 c-0.04 0 -0.08 0.04 -0.08 0.08 s0.04 0.08 0.08 0.08 s0.08 -0.04 0.08 -0.08 s-0.04 -0.08 -0.08 -0.08 z M56.56 10.079999999999998 c-0.04 0 -0.04 0.04 -0.04 0.04 c0 0.04 0 0.08 0.04 0.08 c0.08 0 0.08 -0.04 0.08 -0.08 c0 0 0 -0.04 -0.08 -0.04 z M52.36000000000001 9.879999999999999 c-0.04 0 -0.04 0.04 -0.04 0.08 s0 0.08 0.04 0.08 c0.08 0 0.08 -0.04 0.08 -0.08 s0 -0.08 -0.08 -0.08 z M45.88000000000001 9.64 l0 0.08 l0.2 0 l0 -0.08 l-0.2 0 z M56.84 9.64 l0 0.08 l0.12 0 l0 0 z M57.120000000000005 9.440000000000001 c-0.04 0 -0.04 0.04 -0.04 0.08 c0 0.08 0 0.12 0.04 0.12 c0.08 0 0.08 -0.04 0.08 -0.12 c0 -0.04 0 -0.08 -0.08 -0.08 z M54.080000000000005 9.120000000000001 c-0.12 0 -0.24 0.04 -0.2 0.16 c0.12 0 0.2 -0.08 0.2 -0.16 z M51.24000000000001 8.920000000000002 c-0.04 0 -0.08 0.04 -0.08 0.08 c0 0.08 0.04 0.12 0.08 0.12 s0.08 -0.04 0.08 -0.12 c0 -0.04 -0.04 -0.08 -0.08 -0.08 z M53.32000000000001 8.920000000000002 c-0.04 0 -0.04 0 -0.04 0.04 c0 0 0 0.04 0.04 0.04 c0.08 0 0.08 -0.04 0.08 -0.04 c0 -0.04 0 -0.04 -0.08 -0.04 z M50.96000000000001 8.719999999999999 l-0.12 0.12 l0.12 0 l0 -0.12 z M53.720000000000006 8.64 c-0.04 0 -0.08 0.04 -0.08 0.08 c0 0.08 0.04 0.12 0.08 0.12 s0.08 -0.04 0.08 -0.12 c0 -0.04 -0.04 -0.08 -0.08 -0.08 z M54.28000000000001 8.48 c-0.04 0 -0.04 0.04 -0.04 0.08 c0 0.08 0 0.12 0.04 0.12 s0.08 -0.04 0.08 -0.12 c0 -0.04 -0.04 -0.08 -0.08 -0.08 z M56.00000000000001 8.280000000000001 l0 0.28 c0.08 0 0.08 -0.16 0.08 -0.28 l-0.08 0 z M56.760000000000005 8.399999999999999 c-0.04 0 -0.04 0.04 -0.04 0.08 s0 0.08 0.04 0.08 s0.08 -0.04 0.08 -0.08 s-0.04 -0.08 -0.08 -0.08 z M51.28000000000001 8.04 l0 -0.04 c-0.04 0 -0.12 0.12 -0.12 0.16 l0 0 c0.12 0 0.12 0 0.12 -0.12 z M52.720000000000006 8.16 c0 -0.08 -0.04 -0.08 -0.04 -0.08 c-0.04 0 -0.08 0.04 -0.08 0.12 l0.04 0 s0.08 0 0.08 -0.04 z M55.56 8.079999999999998 c-0.04 0 -0.04 0.04 -0.04 0.04 c0 0.04 0 0.08 0.04 0.08 s0.08 -0.04 0.08 -0.08 c0 0 -0.04 -0.04 -0.08 -0.04 z M53.84 7.960000000000001 l0 0.08 l0.2 0 l0 -0.08 l-0.2 0 z M55.760000000000005 8 l0.08 0.08 l0 -0.04 z M55.64000000000001 7.799999999999997 c-0.04 0 -0.04 0.04 -0.04 0.08 c0 0.08 0 0.12 0.04 0.12 c0.08 0 0.08 -0.04 0.08 -0.12 c0 -0.04 0 -0.08 -0.08 -0.08 z M47.760000000000005 7.359999999999999 c0 0.08 0 0.2 0.08 0.2 l0.08 -0.12 c0 -0.08 -0.08 -0.08 -0.16 -0.08 z M47.00000000000001 7.359999999999999 l0 0.08 l0.08 -0.08 l-0.08 0 z M52.720000000000006 7.399999999999999 c-0.04 0 -0.08 0.04 -0.08 0.08 c0 0.08 0.04 0.12 0.08 0.12 s0.08 -0.04 0.08 -0.12 c0 -0.04 -0.04 -0.08 -0.08 -0.08 z M59.16000000000001 7.280000000000001 c-0.04 0 -0.04 0 -0.04 0.04 c0 0 0 0.04 0.04 0.04 c0.08 0 0.08 -0.04 0.08 -0.04 c0 -0.04 0 -0.04 -0.08 -0.04 z M43.92000000000001 7.039999999999999 l0.12 0.08 l0 -0.08 l-0.12 0 z M52.720000000000006 7.119999999999997 c-0.16 0 -0.2 0.04 -0.32 0.08 l0.12 0 z M47.28000000000001 6.880000000000003 l-0.12 0.08 l0.12 0 l0 -0.08 z M48.720000000000006 6.880000000000003 c-0.04 0 -0.08 0 -0.08 0.04 c0 0 0.04 0.04 0.08 0.04 s0.08 -0.04 0.08 -0.04 c0 -0.04 -0.04 -0.04 -0.08 -0.04 z M48.88000000000001 6.799999999999997 c-0.04 0 -0.04 0.04 -0.04 0.08 s0 0.08 0.04 0.08 c0.08 0 0.08 -0.04 0.08 -0.08 s0 -0.08 -0.08 -0.08 z M51.080000000000005 6.840000000000003 c-0.04 0 -0.04 0.04 -0.04 0.08 s0 0.08 0.04 0.08 s0.08 -0.04 0.08 -0.08 s-0.04 -0.08 -0.08 -0.08 z M59.080000000000005 6.920000000000002 c-0.04 0 -0.04 0.04 -0.04 0.08 s0 0.08 0.04 0.08 s0.08 -0.04 0.08 -0.08 s-0.04 -0.08 -0.08 -0.08 z M41.760000000000005 6.560000000000002 c0.04 0 0.08 0.04 0.08 0.08 c0 0.08 -0.04 0.12 -0.08 0.12 s-0.08 -0.04 -0.08 -0.12 c0 -0.04 0.04 -0.08 0.08 -0.08 z M49.64000000000001 6.600000000000001 c-0.04 0 -0.04 0.04 -0.04 0.08 c0 0.08 0 0.12 0.08 0.12 c0.04 0 0.04 -0.04 0.04 -0.08 s0 -0.12 -0.08 -0.12 z M51.92 6.640000000000001 c-0.04 0 -0.04 0 -0.04 0.04 c0 0 0 0.04 0.04 0.04 c0.08 0 0.08 -0.04 0.08 -0.04 c0 -0.04 0 -0.04 -0.08 -0.04 z M58.60000000000001 6.560000000000002 c-0.04 0 -0.04 0.04 -0.04 0.08 c0 0.08 0 0.12 0.04 0.12 c0.08 0 0.08 -0.04 0.08 -0.12 c0 -0.04 0 -0.08 -0.08 -0.08 z"/></g><g id="SvgjsG5801" featureKey="sloganFeature-0" transform="matrix(1.1327432863526954,0,0,1.1327432863526954,111.9999994598659,250.49486639682016)" fill="#000"><path d="M8.52 5 l-3.54 8.16 l0 6.84 l-1.44 0 l0 -6.84 l-3.54 -8.16 l1.6 0 l2.64 6.44 l2.68 -6.44 l1.6 0 z M16.72 16.12 c0 1.4133 -0.31666 2.4434 -0.95 3.09 s-1.6633 0.97 -3.09 0.97 c-1.3067 0 -2.2634 -0.36 -2.87 -1.08 s-0.91 -1.7133 -0.91 -2.98 l0 -7.2 c0 -1.3733 0.32334 -2.3934 0.97 -3.06 s1.6633 -1 3.05 -1 c1.32 0 2.2834 0.35 2.89 1.05 s0.91 1.69 0.91 2.97 l0 7.24 z M15.32 16.08 l-0.000019531 -7.22 c0 -0.76 -0.2 -1.3933 -0.6 -1.9 s-1.0067 -0.76 -1.82 -0.76 c-0.97334 0 -1.65 0.25334 -2.03 0.76 s-0.57 1.22 -0.57 2.14 l0 6.9 c0 0.38666 0.04334 0.75 0.13 1.09 s0.22666 0.63666 0.42 0.89 s0.44 0.45334 0.74 0.6 s0.66334 0.22 1.09 0.22 c0.93334 0 1.6067 -0.22666 2.02 -0.68 s0.62 -1.1333 0.62 -2.04 z M26.320000000000004 16.12 c0 1.3333 -0.32336 2.3434 -0.97002 3.03 s-1.6433 1.03 -2.99 1.03 c-1.28 0 -2.2434 -0.36666 -2.89 -1.1 s-0.97 -1.72 -0.97 -2.96 l0 -11.12 l1.42 0 l0 11.06 c0 0.37334 0.05 0.72334 0.15 1.05 s0.25 0.61332 0.45 0.85998 s0.45 0.44 0.75 0.58 s0.65 0.21 1.05 0.21 c0.97334 0 1.65 -0.27 2.03 -0.81 s0.57 -1.2633 0.57 -2.17 l0 -10.78 l1.4 0 l0 11.12 z M36.980000000000004 20 l-1.72 -0.000019531 l-3.14 -6.06 l-2.6 0 l0 6.06 l-1.34 0 l0 -15 l3.44 0 c1.3733 0 2.46 0.39334 3.26 1.18 s1.2 1.8667 1.2 3.24 c0 0.42666 -0.05666 0.86 -0.17 1.3 s-0.27668 0.85334 -0.49002 1.24 s-0.47668 0.73666 -0.79002 1.05 s-0.67 0.55668 -1.07 0.73002 z M34.660000000000004 9.32 c0 -0.46666 -0.08 -0.88664 -0.24 -1.26 s-0.38 -0.69 -0.66 -0.95 s-0.61334 -0.46 -1 -0.6 s-0.80666 -0.21 -1.26 -0.21 l-1.98 0 l0 6.26 l2.1 0 c1.0667 0 1.84 -0.28666 2.32 -0.86 s0.72 -1.3667 0.72 -2.38 z M49.14 16.12 c0 1.4133 -0.31666 2.4434 -0.95 3.09 s-1.6633 0.97 -3.09 0.97 c-1.3067 0 -2.2634 -0.36 -2.87 -1.08 s-0.91 -1.7133 -0.91 -2.98 l0 -7.2 c0 -1.3733 0.32334 -2.3934 0.97 -3.06 s1.6633 -1 3.05 -1 c1.32 0 2.2834 0.35 2.89 1.05 s0.91 1.69 0.91 2.97 l0 7.24 z M47.74 16.08 l-0.000019531 -7.22 c0 -0.76 -0.2 -1.3933 -0.6 -1.9 s-1.0067 -0.76 -1.82 -0.76 c-0.97334 0 -1.65 0.25334 -2.03 0.76 s-0.57 1.22 -0.57 2.14 l0 6.9 c0 0.38666 0.04334 0.75 0.13 1.09 s0.22666 0.63666 0.42 0.89 s0.44 0.45334 0.74 0.6 s0.66334 0.22 1.09 0.22 c0.93334 0 1.6067 -0.22666 2.02 -0.68 s0.62 -1.1333 0.62 -2.04 z M64.28 5 l-3.44 15 l-1.28 0 l-2.5 -12.24 l-2.48 12.24 l-1.26 0 l-3.44 -15 l1.44 0 l2.52 12 l2.76 -11.96 l-0.02 -0.04 l0.02 0 l0.96 0 l0.11 0.49 c0.07334 0.32666 0.17 0.75332 0.29 1.28 s0.25666 1.1333 0.41 1.82 s0.31334 1.39 0.48 2.11 s0.33 1.4333 0.49 2.14 s0.30666 1.35 0.44 1.93 s0.24668 1.07 0.34002 1.47 s0.15334 0.65334 0.18 0.76 l2.52 -12 l1.46 0 z M73.4 20 l-1.56 0 l-5.2 -11.8 l0 11.8 l-1.44 0 l0 -15 l1.44 0 l5.22 11.3 l0.12 -11.3 l1.42 0 l0 15 z M86.20000000000002 6.460000000000001 l-3.1 0 l0 13.54 l-1.48 0 l0 -13.54 l-3.1 0 l0 -1.46 l7.68 0 l0 1.46 z M94.68 16.12 c0 1.4133 -0.31666 2.4434 -0.95 3.09 s-1.6633 0.97 -3.09 0.97 c-1.3067 0 -2.2634 -0.36 -2.87 -1.08 s-0.91 -1.7133 -0.91 -2.98 l0 -7.2 c0 -1.3733 0.32334 -2.3934 0.97 -3.06 s1.6633 -1 3.05 -1 c1.32 0 2.2834 0.35 2.89 1.05 s0.91 1.69 0.91 2.97 l0 7.24 z M93.28000000000002 16.08 l-0.000019531 -7.22 c0 -0.76 -0.2 -1.3933 -0.6 -1.9 s-1.0067 -0.76 -1.82 -0.76 c-0.97334 0 -1.65 0.25334 -2.03 0.76 s-0.57 1.22 -0.57 2.14 l0 6.9 c0 0.38666 0.04334 0.75 0.13 1.09 s0.22666 0.63666 0.42 0.89 s0.44 0.45334 0.74 0.6 s0.66334 0.22 1.09 0.22 c0.93334 0 1.6067 -0.22666 2.02 -0.68 s0.62 -1.1333 0.62 -2.04 z M103.72000000000001 12.18 c0 0.49334 0.0033984 1.03 0.010059 1.61 s-0.01668 1.16 -0.07002 1.74 s-0.15 1.14 -0.29 1.68 s-0.35666 1.0167 -0.65 1.43 s-0.67668 0.74334 -1.15 0.99 s-1.0633 0.37 -1.77 0.37 l-3.64 0 l0 -15 l3.5 0 c0.73334 0 1.34 0.10334 1.82 0.31 s0.87334 0.48666 1.18 0.84 s0.53332 0.76668 0.67998 1.24 s0.24666 0.97668 0.3 1.51 s0.08 1.08 0.08 1.64 l0 1.64 z M102.36000000000001 12.32 l0.000019531 -0.85996 c0 -0.37334 -0.01 -0.76 -0.03 -1.16 s-0.04666 -0.78 -0.08 -1.14 s-0.07668 -0.62666 -0.13002 -0.8 c-0.22666 -0.66666 -0.54 -1.16 -0.94 -1.48 s-0.96 -0.48 -1.68 -0.48 l-2 0 l0 12.16 l2.26 0 c0.29334 0 0.56 -0.05334 0.8 -0.16 s0.46 -0.25 0.66 -0.43 s0.37 -0.38666 0.51 -0.62 s0.25666 -0.47668 0.35 -0.73002 c0.06666 -0.17334 0.11666 -0.45668 0.15 -0.85002 s0.06 -0.81 0.08 -1.25 s0.03334 -0.86334 0.04 -1.27 s0.01 -0.71666 0.01 -0.93 z M113 16.12 c0 1.4133 -0.31666 2.4434 -0.95 3.09 s-1.6633 0.97 -3.09 0.97 c-1.3067 0 -2.2634 -0.36 -2.87 -1.08 s-0.91 -1.7133 -0.91 -2.98 l0 -7.2 c0 -1.3733 0.32334 -2.3934 0.97 -3.06 s1.6633 -1 3.05 -1 c1.32 0 2.2834 0.35 2.89 1.05 s0.91 1.69 0.91 2.97 l0 7.24 z M111.60000000000001 16.08 l-0.000019531 -7.22 c0 -0.76 -0.2 -1.3933 -0.6 -1.9 s-1.0067 -0.76 -1.82 -0.76 c-0.97334 0 -1.65 0.25334 -2.03 0.76 s-0.57 1.22 -0.57 2.14 l0 6.9 c0 0.38666 0.04334 0.75 0.13 1.09 s0.22666 0.63666 0.42 0.89 s0.44 0.45334 0.74 0.6 s0.66334 0.22 1.09 0.22 c0.93334 0 1.6067 -0.22666 2.02 -0.68 s0.62 -1.1333 0.62 -2.04 z"/></g>
			</g>
		</svg>
	